<svg width="630" height="630" viewBox="0 0 630 630" fill="none" xmlns="http://www.w3.org/2000/svg">
<mask id="mask0_2188_1726" style="mask-type:alpha" maskUnits="userSpaceOnUse" x="0" y="0" width="630" height="630">
<rect width="630" height="630" fill="#D9D9D9"/>
</mask>
<g mask="url(#mask0_2188_1726)">
<path d="M0 0H630V630H0V0Z" fill="#FEFBF8"/>
<ellipse cx="452.5" cy="384" rx="59.5" ry="59" fill="#FBBF81"/>
<path d="M1181 632.5C1181 770.295 958.601 882 673.401 882C388.201 882 157 770.295 157 632.5C157 494.705 388.201 383 673.401 383C958.601 383 1181 494.705 1181 632.5Z" fill="#DBECEC"/>
<path d="M212 580.5C212 732.654 58.8047 856 -130.171 856C-319.147 856 -558.995 800.465 -559 640.823C-559.004 487.391 -319.147 305 -130.171 305C58.8047 305 212 428.346 212 580.5Z" fill="#F4E2CA"/>
<path d="M164.653 504.134C-1.98914 507.566 -83.1401 587.456 -108 628H947.831H1237C1200.49 577.482 1081.7 528.162 971.865 528.162C851.988 528.162 795.51 585.718 645.049 585.718C476.92 585.718 357.332 500.165 164.653 504.134Z" fill="#F8CB9E"/>
<path d="M143.636 461.218L201.655 404.728C203.212 403.211 205.696 403.216 207.247 404.739L262.171 458.645C262.918 459.378 263.347 460.374 263.369 461.419L264.919 538.049C264.964 540.265 263.198 542.095 260.982 542.129L145.136 543.936C142.874 543.971 141.033 542.126 141.074 539.865L142.427 464.012C142.446 462.958 142.88 461.953 143.636 461.218Z" fill="#EB9660"/>
<path d="M92.7814 337.683C92.7814 369.413 82.7568 374.313 70.3907 374.313C58.0247 374.313 48 366.887 48 337.683C48 316.057 58.0247 296 70.3907 296C82.7568 296 92.7814 316.057 92.7814 337.683Z" fill="#56A6AD"/>
<path d="M66.4552 374.528C66.4644 373.43 67.3571 372.545 68.4551 372.545H72.3643C73.4493 372.545 74.3365 373.41 74.3636 374.495L75.0225 400.809C75.0506 401.933 74.1473 402.859 73.0231 402.859H68.2355C67.1244 402.859 66.2263 401.954 66.2356 400.843L66.4552 374.528Z" fill="#56A6AD"/>
<path d="M386.731 550.195C377.801 566.171 368.491 573.954 367.068 573.253C365.645 572.553 374.238 556.656 378.927 547.157C383.617 537.658 386.225 538.195 388.035 539.527C390.758 541.531 389.048 546.049 386.731 550.195Z" fill="#55A3A5"/>
<path d="M344.576 558.959C350.892 566.272 366.375 575.025 368.195 573.866C370.52 572.384 359.236 562.558 352.906 555.258C346.576 547.958 343.215 548.726 341.748 550.194C340.516 551.427 341.379 555.258 344.576 558.959Z" fill="#55A3A5"/>
<path d="M352.221 546.031C357.679 555.355 364.931 575.694 368.418 573.978C370.677 572.866 364.616 553.263 359.831 543.569C355.045 533.875 352.222 532.211 350.055 533.495C348.474 534.431 348.426 539.547 352.221 546.031Z" fill="#EC955F"/>
<path d="M387.488 567.295C381.486 571.515 368.462 574.963 367.704 573.883C366.946 572.803 376.969 566.101 382.981 561.895C388.992 557.689 390.678 558.84 391.655 560.432C392.476 561.769 390.179 565.404 387.488 567.295Z" fill="#EC955F"/>
<path d="M374.931 537.061C375.325 550.858 370.711 573.135 368.748 573.191C366.785 573.247 367.798 555.546 365.779 535.121C364.834 525.555 367.145 522.209 369.108 522.154C371.071 522.098 374.537 523.264 374.931 537.061Z" fill="#EC955F"/>
<path d="M546.229 482.055C546.249 480.932 547.19 480.046 548.313 480.093L551.889 480.244C552.94 480.288 553.778 481.14 553.804 482.192L554.493 509.854C554.521 510.978 553.617 511.904 552.493 511.904H547.724C546.605 511.904 545.704 510.986 545.724 509.868L546.229 482.055Z" fill="#56A5AC"/>
<path d="M547.202 407.568C548.723 405.009 552.403 404.972 553.989 407.492L567.178 428.454C569.113 431.529 567.225 435.559 563.617 435.975C559.864 436.407 555.404 436.863 551.853 437.055C547.91 437.269 542.895 437.278 538.752 437.228C535.073 437.185 532.795 433.286 534.524 430.039C536.301 426.702 538.416 422.776 540.151 419.686C542.234 415.975 545.034 411.215 547.202 407.568Z" fill="#56A5AC"/>
<path d="M548.26 429.455C549.784 427.153 553.119 427.05 554.761 429.269C557.52 432.997 561.403 438.316 564.191 442.424C566.441 445.74 569.169 450.023 571.408 453.598C573.399 456.776 571.27 460.885 567.525 461.088C562.562 461.357 556.271 461.645 551.382 461.689C546.775 461.731 540.904 461.58 536.117 461.415C532.243 461.281 530.052 456.965 532.191 453.733L548.26 429.455Z" fill="#56A5AC"/>
<path d="M547.636 452.291C549.323 450.2 552.54 450.372 554.021 452.614L573.353 481.876C575.011 484.385 573.412 487.742 570.415 487.996C564.592 488.489 556.051 489.114 549.64 489.165C543.372 489.215 535.006 488.751 529.315 488.371C526.36 488.173 524.699 484.942 526.256 482.423C528.973 478.026 532.865 471.867 536.04 467.374C539.441 462.563 544.367 456.342 547.636 452.291Z" fill="#56A5AC"/>
<path d="M495.58 487.745C495.599 486.62 496.543 485.732 497.667 485.781L500.705 485.915C501.756 485.962 502.591 486.814 502.616 487.866L503.253 514.593C503.28 515.716 502.377 516.641 501.253 516.641H497.113C495.995 516.641 495.094 515.724 495.113 514.606L495.58 487.745Z" fill="#2F7D81"/>
<path d="M501.898 435.239C500.39 432.622 496.644 432.587 495.067 435.162L485.696 450.463C484.193 452.918 485.697 456.097 488.556 456.435C491.431 456.774 494.823 457.128 497.529 457.279C500.53 457.446 504.332 457.455 507.503 457.418C510.425 457.384 512.248 454.302 510.903 451.707C509.532 449.062 507.901 445.952 506.563 443.503C505.195 440.999 503.426 437.892 501.898 435.239Z" fill="#2F7D81"/>
<path d="M494.612 452.395C496.13 450.039 499.533 449.936 501.166 452.214C503.202 455.055 505.752 458.668 507.647 461.537C509.677 464.611 512.211 468.733 514.058 471.781C515.214 473.69 513.938 476.124 511.71 476.254C507.719 476.488 502.042 476.776 497.759 476.816C494.246 476.849 489.78 476.732 486.11 476.603C483.036 476.495 481.282 473.087 482.948 470.501L494.612 452.395Z" fill="#2F7D81"/>
<path d="M496.276 470.393C497.955 468.242 501.239 468.414 502.715 470.71L516.233 491.733C517.845 494.24 516.248 497.55 513.277 497.798C508.886 498.164 503.09 498.57 498.631 498.607C494.271 498.642 488.596 498.347 484.302 498.067C481.372 497.877 479.713 494.687 481.234 492.175C483.272 488.809 485.926 484.531 488.132 481.324C490.49 477.896 493.799 473.567 496.276 470.393Z" fill="#2F7D81"/>
<path d="M235.069 225.668H247.381C249.541 225.668 250.525 226.676 250.525 228.596C250.525 228.668 250.525 228.74 250.525 228.812C250.429 233.228 249.181 236.78 246.949 239.42C244.957 241.772 242.149 243.404 238.645 244.292C238.501 244.316 238.357 244.34 238.213 244.34C237.685 244.34 237.325 244.052 237.181 243.572C237.157 243.452 237.133 243.332 237.133 243.212C237.133 242.756 237.421 242.42 237.949 242.3C241.333 241.436 243.949 239.852 245.653 237.644C247.381 235.484 248.269 232.532 248.365 228.788C248.365 228.764 248.365 228.74 248.365 228.716C248.365 227.924 248.029 227.636 247.117 227.636H235.741C234.829 227.636 234.565 227.828 234.565 228.644V233.156C234.565 233.732 234.109 234.116 233.509 234.116C232.885 234.116 232.429 233.732 232.429 233.156V228.188C232.429 226.484 233.389 225.668 235.069 225.668ZM274.429 235.7H256.165C255.565 235.7 255.229 235.316 255.229 234.668C255.229 234.044 255.565 233.588 256.189 233.588H274.405C275.029 233.588 275.365 234.044 275.365 234.668C275.365 235.316 275.029 235.7 274.429 235.7ZM290.605 229.724V243.956C290.605 244.58 290.101 244.868 289.525 244.868C288.949 244.868 288.541 244.58 288.541 243.956V229.724H280.501C279.997 229.724 279.661 229.316 279.661 228.764C279.661 228.236 279.997 227.78 280.501 227.78H288.541V224.972C288.541 224.348 288.949 224.06 289.525 224.06C290.101 224.06 290.605 224.348 290.605 224.972V227.78H299.077C299.581 227.78 299.917 228.236 299.917 228.764C299.917 229.316 299.581 229.724 299.077 229.724H290.605ZM282.877 232.988C282.973 232.436 283.357 232.172 283.813 232.172C283.933 232.172 284.029 232.196 284.149 232.22C284.629 232.292 284.941 232.652 284.941 233.18C284.941 233.252 284.941 233.348 284.917 233.444C284.245 236.708 282.949 239.9 281.341 242.18C281.101 242.54 280.741 242.708 280.405 242.708C280.189 242.708 279.997 242.66 279.829 242.54C279.493 242.348 279.325 242.036 279.325 241.7C279.325 241.484 279.397 241.244 279.541 241.052C281.101 238.94 282.325 235.892 282.877 232.988ZM295.093 232.22C295.189 232.196 295.285 232.196 295.381 232.196C295.837 232.196 296.245 232.436 296.365 233.012C296.941 235.94 298.165 238.892 299.893 241.028C300.013 241.22 300.085 241.46 300.085 241.676C300.085 242.036 299.917 242.348 299.653 242.54C299.437 242.66 299.221 242.732 299.005 242.732C298.669 242.732 298.333 242.564 298.069 242.204C296.437 240.02 294.973 236.684 294.325 233.444C294.301 233.348 294.301 233.252 294.301 233.156C294.301 232.652 294.637 232.292 295.093 232.22ZM307.909 225.548V236.084C307.909 236.708 307.477 237.068 306.829 237.068C306.205 237.068 305.749 236.732 305.749 236.108V225.572C305.749 224.948 306.205 224.588 306.829 224.588C307.477 224.588 307.909 224.924 307.909 225.548ZM317.653 233.084V225.596C317.653 224.972 318.061 224.588 318.685 224.588C319.333 224.588 319.813 224.924 319.813 225.548V233.372C319.813 236.972 318.901 239.492 316.861 241.292C314.965 242.948 312.157 244.052 309.493 244.364C309.445 244.364 309.373 244.364 309.325 244.364C308.749 244.364 308.365 244.028 308.245 243.524C308.221 243.428 308.221 243.356 308.221 243.26C308.221 242.78 308.533 242.396 309.085 242.324C311.509 242.012 313.909 241.052 315.421 239.684C316.981 238.268 317.653 236.204 317.653 233.084ZM338.554 242.846H347.904C348.354 242.846 348.629 243.221 348.629 243.771C348.629 244.296 348.354 244.671 347.904 244.671H326.704C326.254 244.671 326.004 244.296 326.004 243.771C326.004 243.221 326.254 242.846 326.704 242.846H336.529V236.521H329.904C329.454 236.521 329.154 236.146 329.154 235.621C329.154 235.096 329.454 234.721 329.904 234.721H336.529V229.496H330.679C329.854 231.196 328.879 232.796 327.779 234.171C327.554 234.421 327.304 234.546 327.054 234.546C326.804 234.546 326.529 234.446 326.329 234.246C326.104 234.071 325.979 233.821 325.979 233.571C325.979 233.346 326.079 233.096 326.254 232.871C328.179 230.546 329.804 227.371 330.629 224.196C330.754 223.771 331.054 223.571 331.454 223.571C331.554 223.571 331.679 223.596 331.804 223.621C332.279 223.746 332.579 224.071 332.579 224.446C332.579 224.521 332.579 224.621 332.529 224.696C332.254 225.671 331.879 226.696 331.454 227.696H336.529V223.296C336.529 222.821 336.954 222.521 337.529 222.521C338.129 222.521 338.554 222.821 338.554 223.296V227.696H346.979C347.429 227.696 347.679 228.046 347.679 228.596C347.679 229.121 347.429 229.496 346.979 229.496H338.554V234.721H345.654C346.104 234.721 346.379 235.096 346.379 235.621C346.379 236.146 346.104 236.521 345.654 236.521H338.554V242.846ZM367.329 235.846H371.479C372.954 235.846 373.604 236.396 373.604 237.821V242.871C373.604 244.321 372.954 244.896 371.479 244.896H361.804C360.329 244.896 359.654 244.321 359.654 242.871V237.821C359.654 236.396 360.329 235.846 361.804 235.846H365.479V231.746H358.779C358.304 231.746 358.004 231.421 358.004 230.846C358.004 230.296 358.304 229.946 358.779 229.946H365.479V226.071C363.579 226.346 361.704 226.521 359.954 226.646C359.929 226.646 359.929 226.646 359.904 226.646C359.379 226.646 359.079 226.321 359.029 225.796C359.029 225.771 359.029 225.721 359.029 225.696C359.029 225.146 359.429 224.871 359.854 224.846C363.904 224.596 368.754 223.896 372.429 222.671C372.554 222.621 372.679 222.596 372.804 222.596C373.154 222.596 373.454 222.746 373.604 223.171C373.654 223.296 373.679 223.446 373.679 223.571C373.679 223.971 373.429 224.321 373.029 224.446C371.304 224.971 369.354 225.421 367.329 225.771V229.946H374.279C374.754 229.946 375.054 230.271 375.054 230.846C375.054 231.396 374.754 231.746 374.279 231.746H367.329V235.846ZM362.254 243.121H370.954C371.454 243.121 371.704 242.996 371.704 242.471V238.221C371.704 237.696 371.454 237.571 370.954 237.571H362.254C361.779 237.571 361.554 237.696 361.554 238.221V242.471C361.554 242.996 361.779 243.121 362.254 243.121ZM354.504 223.171C355.504 223.796 357.004 225.021 357.854 225.921C358.079 226.171 358.179 226.421 358.179 226.671C358.179 226.921 358.079 227.146 357.904 227.321C357.729 227.521 357.454 227.621 357.179 227.621C356.929 227.621 356.654 227.521 356.479 227.321C355.654 226.446 354.204 225.321 353.229 224.646C353.029 224.496 352.904 224.271 352.904 224.021C352.904 223.821 352.979 223.596 353.154 223.396C353.354 223.146 353.679 223.021 353.979 223.021C354.154 223.021 354.329 223.071 354.504 223.171ZM353.354 229.346C354.354 229.946 355.929 231.221 356.754 231.996C357.029 232.246 357.129 232.496 357.129 232.746C357.129 232.996 357.029 233.221 356.854 233.396C356.654 233.596 356.379 233.721 356.079 233.721C355.829 233.721 355.604 233.646 355.404 233.471C354.579 232.721 353.179 231.471 352.104 230.796C351.904 230.671 351.779 230.421 351.779 230.171C351.779 229.971 351.854 229.771 352.004 229.596C352.229 229.346 352.504 229.196 352.829 229.196C353.004 229.196 353.179 229.246 353.354 229.346ZM356.954 236.621C357.404 236.796 357.579 237.121 357.579 237.446C357.579 237.571 357.554 237.696 357.504 237.821C356.554 239.971 355.004 242.996 353.779 244.721C353.554 245.021 353.254 245.171 352.954 245.171C352.729 245.171 352.504 245.096 352.304 244.971C352.054 244.796 351.904 244.571 351.904 244.296C351.904 244.046 352.004 243.796 352.229 243.521C353.404 241.871 354.829 239.096 355.704 237.021C355.829 236.696 356.129 236.521 356.479 236.521C356.629 236.521 356.779 236.546 356.954 236.621ZM389.909 227.492C389.693 231.14 389.165 234.5 388.325 237.068C387.485 239.54 386.789 240.62 385.949 241.412C385.181 242.156 384.173 242.468 383.189 242.468C380.693 242.468 378.701 240.044 378.701 236.012C378.701 230.036 382.877 225.716 389.429 225.716C395.093 225.716 398.837 229.412 398.837 234.692C398.837 238.076 397.373 240.644 394.877 242.228C393.485 243.116 391.757 243.668 389.837 243.956C389.741 243.98 389.645 243.98 389.573 243.98C389.069 243.98 388.661 243.74 388.565 243.14C388.541 243.068 388.541 242.972 388.541 242.9C388.541 242.42 388.853 242.06 389.405 241.964C391.157 241.724 393.005 241.124 394.205 240.236C395.717 239.108 396.821 237.164 396.821 234.644C396.821 230.588 394.157 227.636 389.909 227.492ZM387.917 227.564C383.525 227.972 380.645 231.332 380.645 235.988C380.645 238.868 381.869 240.38 383.141 240.38C383.693 240.38 384.245 240.188 384.749 239.684C385.277 239.18 385.829 238.148 386.405 236.396C387.149 234.14 387.749 230.852 387.917 227.564ZM258.191 263.828L246.719 263.972C246.143 263.972 245.831 263.564 245.831 262.916C245.831 262.34 246.167 261.956 246.719 261.956L258.935 261.836C259.967 261.836 260.639 262.172 261.071 262.796C261.263 263.132 261.383 263.516 261.383 263.996C261.383 264.404 261.287 264.884 261.119 265.388C260.327 267.524 258.983 269.564 257.303 271.628C259.991 273.716 261.959 275.276 263.975 277.604C264.191 277.868 264.311 278.156 264.311 278.444C264.311 278.732 264.191 278.996 263.999 279.212C263.783 279.452 263.471 279.572 263.159 279.572C262.847 279.572 262.535 279.452 262.295 279.188C260.495 277.028 258.623 275.228 255.959 273.14C253.295 276.068 249.527 278.396 245.807 279.788C245.615 279.86 245.423 279.908 245.231 279.908C244.823 279.908 244.487 279.716 244.343 279.308C244.295 279.188 244.271 279.044 244.271 278.9C244.271 278.468 244.535 278.036 244.991 277.868C247.895 276.764 250.943 275.036 253.511 272.684C256.007 270.38 257.999 267.572 258.935 264.884C259.007 264.668 259.055 264.5 259.055 264.356C259.055 263.996 258.791 263.828 258.191 263.828ZM283.871 264.404L275.831 264.548C274.415 266.804 272.399 268.964 270.239 270.428C270.047 270.572 269.831 270.644 269.615 270.644C269.327 270.644 269.063 270.5 268.847 270.212C268.727 270.044 268.655 269.852 268.655 269.636C268.655 269.3 268.799 268.964 269.111 268.748C270.503 267.764 271.823 266.54 272.879 265.22C274.007 263.804 274.871 262.316 275.663 260.3C275.855 259.82 276.119 259.676 276.503 259.676C276.623 259.676 276.743 259.7 276.887 259.7C277.295 259.772 277.655 260.036 277.655 260.492C277.655 260.564 277.655 260.636 277.631 260.708C277.535 261.188 277.199 261.956 276.839 262.7L284.543 262.58C286.031 262.556 286.943 263.42 286.943 264.908C286.943 265.196 286.919 265.508 286.847 265.844C286.247 268.964 284.903 271.94 282.791 274.46C280.319 277.412 276.839 279.764 272.303 280.988C272.135 281.012 271.991 281.036 271.847 281.036C271.439 281.036 271.127 280.868 270.983 280.46C270.935 280.316 270.911 280.172 270.911 280.028C270.911 279.62 271.175 279.26 271.655 279.116C275.303 278.036 278.111 276.332 280.415 274.028C278.639 272.372 276.671 270.86 274.919 269.78C274.655 269.612 274.535 269.372 274.535 269.084C274.535 268.868 274.631 268.652 274.799 268.46C274.991 268.196 275.279 268.076 275.543 268.076C275.759 268.076 275.951 268.148 276.167 268.268C277.607 269.132 279.863 270.644 281.783 272.516C283.319 270.524 284.255 268.244 284.759 265.58C284.807 265.388 284.831 265.22 284.831 265.076C284.831 264.62 284.591 264.38 283.871 264.404ZM310.439 271.7H292.175C291.575 271.7 291.239 271.316 291.239 270.668C291.239 270.044 291.575 269.588 292.199 269.588H310.415C311.039 269.588 311.375 270.044 311.375 270.668C311.375 271.316 311.039 271.7 310.439 271.7ZM319.919 269.468V279.788C319.919 280.436 319.463 280.7 318.863 280.7C318.215 280.7 317.807 280.436 317.807 279.788V261.14C317.807 260.492 318.215 260.228 318.863 260.228C319.463 260.228 319.919 260.492 319.919 261.164V267.332C323.543 268.292 328.007 269.9 331.631 271.628C332.087 271.844 332.279 272.204 332.279 272.636C332.279 272.804 332.255 272.972 332.183 273.164C332.039 273.572 331.655 273.86 331.223 273.86C331.055 273.86 330.887 273.812 330.719 273.74C327.551 272.132 323.423 270.476 319.919 269.468ZM352.034 267.021L348.634 268.171V277.771C348.634 278.671 348.784 278.921 349.809 279.046C350.609 279.146 351.984 279.171 353.209 279.171C354.609 279.171 355.859 279.121 356.809 278.971C357.584 278.821 357.959 278.571 358.159 278.146C358.359 277.646 358.484 276.771 358.509 275.896C358.534 275.321 358.909 275.071 359.459 275.071C359.484 275.071 359.509 275.071 359.534 275.071C360.084 275.096 360.409 275.396 360.409 275.971C360.409 275.971 360.409 275.996 360.409 276.021C360.359 277.321 360.109 278.571 359.834 279.171C359.434 280.021 358.809 280.546 357.109 280.771C356.034 280.921 354.834 280.996 353.159 280.996C351.684 280.996 350.259 280.946 349.184 280.796C347.184 280.521 346.784 279.746 346.784 278.146V268.796L344.859 269.446C344.784 269.471 344.709 269.471 344.634 269.471C344.284 269.471 344.034 269.171 343.959 268.771C343.934 268.671 343.934 268.596 343.934 268.496C343.934 268.121 344.084 267.846 344.409 267.746L346.784 266.946V261.646C346.784 261.196 347.159 260.946 347.709 260.946C348.284 260.946 348.634 261.196 348.634 261.646V266.321L352.034 265.196V259.221C352.034 258.771 352.384 258.521 352.934 258.521C353.509 258.521 353.884 258.771 353.884 259.221V264.571L356.934 263.546C357.309 263.421 357.634 263.371 357.959 263.371C359.009 263.371 359.734 264.071 359.734 265.246C359.734 267.796 359.534 270.571 359.284 271.971C359.009 273.446 358.234 274.071 356.809 274.071C356.209 274.071 355.559 273.996 355.134 273.871C354.784 273.796 354.559 273.521 354.559 273.096C354.559 273.021 354.559 272.921 354.584 272.821C354.684 272.396 354.959 272.196 355.284 272.196C355.359 272.196 355.434 272.196 355.509 272.221C355.834 272.296 356.209 272.371 356.584 272.371C357.184 272.371 357.434 272.121 357.559 271.421C357.784 270.321 357.909 267.696 357.909 266.046C357.909 265.521 357.784 265.296 357.434 265.296C357.309 265.296 357.159 265.321 356.959 265.371L353.884 266.396V275.471C353.884 275.946 353.509 276.196 352.934 276.196C352.384 276.196 352.034 275.946 352.034 275.471V267.021ZM342.084 265.146H344.184C344.634 265.146 344.859 265.496 344.859 265.996C344.859 266.496 344.634 266.871 344.184 266.871H342.084V274.796C342.759 274.496 343.409 274.171 343.984 273.846C344.159 273.746 344.334 273.696 344.484 273.696C344.759 273.696 344.984 273.846 345.109 274.171C345.184 274.346 345.234 274.521 345.234 274.671C345.234 274.971 345.084 275.221 344.734 275.396C343.034 276.421 340.359 277.596 338.434 278.271C338.284 278.321 338.159 278.346 338.034 278.346C337.659 278.346 337.384 278.121 337.234 277.696C337.184 277.546 337.159 277.421 337.159 277.271C337.159 276.921 337.359 276.621 337.734 276.496C338.509 276.246 339.384 275.921 340.234 275.596V266.871H337.934C337.484 266.871 337.259 266.496 337.259 265.996C337.259 265.496 337.484 265.146 337.934 265.146H340.234V259.346C340.234 258.896 340.584 258.646 341.159 258.646C341.709 258.646 342.084 258.896 342.084 259.346V265.146ZM376.109 263.321V266.146H381.909C383.384 266.146 384.034 266.771 384.034 268.221V272.371C384.034 273.796 383.384 274.421 381.909 274.421H369.259C367.784 274.421 367.134 273.796 367.134 272.371V268.221C367.134 266.771 367.784 266.146 369.259 266.146H374.209V259.146C374.209 258.696 374.559 258.421 375.134 258.421C375.734 258.421 376.109 258.696 376.109 259.146V261.496H385.184C385.634 261.496 385.909 261.921 385.909 262.396C385.909 262.921 385.634 263.321 385.184 263.321H376.109ZM369.834 272.671H381.359C381.859 272.671 382.109 272.521 382.109 271.971V268.596C382.109 268.046 381.859 267.896 381.359 267.896H369.834C369.334 267.896 369.084 268.046 369.084 268.596V271.971C369.084 272.521 369.334 272.671 369.834 272.671ZM368.309 275.396C368.759 275.546 369.009 275.846 369.009 276.221C369.009 276.346 368.984 276.496 368.934 276.621C368.209 278.321 367.184 279.921 366.134 281.146C365.934 281.396 365.659 281.521 365.359 281.521C365.109 281.521 364.859 281.446 364.634 281.246C364.384 281.046 364.234 280.746 364.234 280.471C364.234 280.271 364.284 280.096 364.434 279.946C365.409 278.896 366.459 277.271 367.059 275.796C367.234 275.496 367.534 275.321 367.884 275.321C368.009 275.321 368.159 275.346 368.309 275.396ZM372.384 275.596C372.459 275.596 372.534 275.596 372.584 275.596C373.184 275.596 373.384 275.921 373.484 276.646C373.634 277.521 373.859 279.096 373.909 280.496C373.909 280.521 373.909 280.521 373.909 280.546C373.909 281.121 373.559 281.446 372.934 281.496C372.884 281.496 372.834 281.496 372.809 281.496C372.259 281.496 371.934 281.196 371.909 280.696C371.859 279.346 371.684 277.821 371.559 276.896C371.534 276.771 371.534 276.671 371.534 276.571C371.534 276.021 371.784 275.671 372.384 275.596ZM377.159 275.596C377.309 275.546 377.434 275.521 377.559 275.521C377.934 275.521 378.234 275.696 378.384 276.046C378.984 277.271 379.634 278.821 380.059 280.271C380.084 280.346 380.084 280.396 380.084 280.471C380.084 280.896 379.859 281.246 379.309 281.396C379.184 281.446 379.034 281.471 378.909 281.471C378.509 281.471 378.184 281.221 378.059 280.821C377.709 279.496 377.134 277.871 376.559 276.596C376.534 276.496 376.509 276.396 376.509 276.321C376.509 276.021 376.734 275.721 377.159 275.596ZM382.259 275.371C382.459 275.271 382.659 275.196 382.859 275.196C383.134 275.196 383.359 275.296 383.559 275.571C384.609 276.871 385.659 278.471 386.434 280.021C386.509 280.171 386.534 280.296 386.534 280.421C386.534 280.771 386.309 281.071 385.959 281.271C385.759 281.371 385.584 281.421 385.384 281.421C385.084 281.421 384.809 281.271 384.634 280.971C383.859 279.446 382.909 277.871 381.959 276.546C381.834 276.396 381.784 276.221 381.784 276.071C381.784 275.796 381.959 275.546 382.259 275.371Z" fill="#3C3C3C"/>
<path d="M279.153 93.3066H289.413C291.213 93.3066 292.033 94.1466 292.033 95.7466C292.033 95.8066 292.033 95.8666 292.033 95.9266C291.953 99.6066 290.913 102.567 289.053 104.767C287.393 106.727 285.053 108.087 282.133 108.827C282.013 108.847 281.893 108.867 281.773 108.867C281.333 108.867 281.033 108.627 280.913 108.227C280.893 108.127 280.873 108.027 280.873 107.927C280.873 107.547 281.113 107.267 281.553 107.167C284.373 106.447 286.553 105.127 287.973 103.287C289.413 101.487 290.153 99.0266 290.233 95.9066C290.233 95.8866 290.233 95.8666 290.233 95.8466C290.233 95.1866 289.953 94.9466 289.193 94.9466H279.713C278.953 94.9466 278.733 95.1066 278.733 95.7866V99.5466C278.733 100.027 278.353 100.347 277.853 100.347C277.333 100.347 276.953 100.027 276.953 99.5466V95.4066C276.953 93.9866 277.753 93.3066 279.153 93.3066ZM307.433 96.6866V108.547C307.433 109.067 307.013 109.307 306.533 109.307C306.053 109.307 305.713 109.067 305.713 108.547V96.6866H299.013C298.593 96.6866 298.313 96.3466 298.313 95.8866C298.313 95.4466 298.593 95.0666 299.013 95.0666H305.713V92.7266C305.713 92.2066 306.053 91.9666 306.533 91.9666C307.013 91.9666 307.433 92.2066 307.433 92.7266V95.0666H314.493C314.913 95.0666 315.193 95.4466 315.193 95.8866C315.193 96.3466 314.913 96.6866 314.493 96.6866H307.433ZM300.993 99.4066C301.073 98.9466 301.393 98.7266 301.773 98.7266C301.873 98.7266 301.953 98.7466 302.053 98.7666C302.453 98.8266 302.713 99.1266 302.713 99.5666C302.713 99.6266 302.713 99.7066 302.693 99.7866C302.133 102.507 301.053 105.167 299.713 107.067C299.513 107.367 299.213 107.507 298.933 107.507C298.753 107.507 298.593 107.467 298.453 107.367C298.173 107.207 298.033 106.947 298.033 106.667C298.033 106.487 298.093 106.287 298.213 106.127C299.513 104.367 300.533 101.827 300.993 99.4066ZM311.173 98.7666C311.253 98.7466 311.333 98.7466 311.413 98.7466C311.793 98.7466 312.133 98.9466 312.233 99.4266C312.713 101.867 313.733 104.327 315.173 106.107C315.273 106.267 315.333 106.467 315.333 106.647C315.333 106.947 315.193 107.207 314.973 107.367C314.793 107.467 314.613 107.527 314.433 107.527C314.153 107.527 313.873 107.387 313.653 107.087C312.293 105.267 311.073 102.487 310.533 99.7866C310.513 99.7066 310.513 99.6266 310.513 99.5466C310.513 99.1266 310.793 98.8266 311.173 98.7666ZM322.853 93.2066V101.987C322.853 102.507 322.493 102.807 321.953 102.807C321.433 102.807 321.053 102.527 321.053 102.007V93.2266C321.053 92.7066 321.433 92.4066 321.953 92.4066C322.493 92.4066 322.853 92.6866 322.853 93.2066ZM330.973 99.4866V93.2466C330.973 92.7266 331.313 92.4066 331.833 92.4066C332.373 92.4066 332.773 92.6866 332.773 93.2066V99.7266C332.773 102.727 332.013 104.827 330.313 106.327C328.733 107.707 326.393 108.627 324.173 108.887C324.133 108.887 324.073 108.887 324.033 108.887C323.553 108.887 323.233 108.607 323.133 108.187C323.113 108.107 323.113 108.047 323.113 107.967C323.113 107.567 323.373 107.247 323.833 107.187C325.853 106.927 327.853 106.127 329.113 104.987C330.413 103.807 330.973 102.087 330.973 99.4866ZM348.353 98.1066V108.307C348.353 108.807 347.973 109.067 347.473 109.067C346.953 109.067 346.573 108.827 346.573 108.287V99.2666C344.193 100.687 341.713 101.827 339.453 102.567C339.293 102.627 339.153 102.647 339.013 102.647C338.673 102.647 338.433 102.467 338.273 102.087C338.253 101.987 338.233 101.887 338.233 101.787C338.233 101.467 338.433 101.127 338.833 100.987C341.173 100.227 343.853 99.0066 346.533 97.2666C348.733 95.8466 350.353 94.4866 351.973 92.6466C352.153 92.4466 352.413 92.3266 352.653 92.3266C352.853 92.3266 353.053 92.3866 353.233 92.5266C353.473 92.7066 353.593 92.9466 353.593 93.1866C353.593 93.3666 353.513 93.5466 353.373 93.7266C352.133 95.1466 350.393 96.6866 348.353 98.1066Z" fill="#4EA8BB"/>
<path d="M465.726 144.132C469.799 144.132 473.101 147.434 473.101 151.507V181.928C473.101 186.001 469.799 189.303 465.726 189.303C461.653 189.303 458.352 186.001 458.352 181.928V151.507C458.352 147.434 461.653 144.132 465.726 144.132Z" fill="#4EA8BB"/>
<path d="M440.634 139.138C438.046 139.138 435.919 138.392 434.251 136.9C432.641 135.35 431.836 133.456 431.836 131.217C431.836 128.921 432.641 127.027 434.251 125.535C435.919 123.985 438.046 123.21 440.634 123.21C443.164 123.21 445.234 123.985 446.844 125.535C448.512 127.027 449.346 128.921 449.346 131.217C449.346 133.456 448.512 135.35 446.844 136.9C445.234 138.392 443.164 139.138 440.634 139.138ZM440.591 144.132C444.664 144.132 447.966 147.433 447.966 151.506V181.928C447.966 186.001 444.664 189.303 440.591 189.303C436.518 189.303 433.216 186.001 433.216 181.928V151.506C433.216 147.433 436.518 144.132 440.591 144.132Z" fill="#4EA8BB"/>
<path d="M415.14 125.593C419.213 125.593 422.515 128.894 422.515 132.967V181.928C422.515 186.001 419.213 189.303 415.14 189.303C411.067 189.303 407.766 186.001 407.766 181.928V132.967C407.766 128.895 411.067 125.593 415.14 125.593Z" fill="#4EA8BB"/>
<path d="M374.771 189.991C370.056 189.991 365.801 188.987 362.005 186.978C358.268 184.969 355.306 182.099 353.121 178.368C350.993 174.637 349.93 170.275 349.93 165.282C349.93 160.346 351.022 156.012 353.207 152.281C355.392 148.493 358.383 145.595 362.178 143.586C365.973 141.577 370.228 140.573 374.944 140.573C379.659 140.573 383.914 141.577 387.709 143.586C391.504 145.595 394.495 148.493 396.68 152.281C398.865 156.012 399.957 160.346 399.957 165.282C399.957 170.218 398.836 174.58 396.593 178.368C394.408 182.099 391.389 184.969 387.537 186.978C383.741 188.987 379.486 189.991 374.771 189.991ZM374.771 177.249C377.589 177.249 379.975 176.216 381.93 174.15C383.943 172.083 384.949 169.127 384.949 165.282C384.949 161.436 383.971 158.48 382.016 156.414C380.119 154.348 377.761 153.315 374.944 153.315C372.068 153.315 369.682 154.348 367.784 156.414C365.887 158.423 364.938 161.379 364.938 165.282C364.938 169.127 365.858 172.083 367.698 174.15C369.596 176.216 371.953 177.249 374.771 177.249Z" fill="#4EA8BB"/>
<path d="M324.304 140.745C329.824 140.745 334.252 142.582 337.587 146.256C340.922 149.872 342.59 154.865 342.59 161.236V181.971C342.59 186.021 339.308 189.303 335.258 189.303C331.209 189.303 327.927 186.021 327.927 181.971V163.216C327.927 160.002 327.093 157.505 325.425 155.726C323.758 153.947 321.515 153.057 318.698 153.057C315.88 153.057 313.637 153.947 311.97 155.726C310.302 157.505 309.468 160.002 309.468 163.216V181.928C309.468 186.001 306.166 189.303 302.094 189.303C298.021 189.303 294.719 186.001 294.719 181.928V132.967C294.719 128.895 298.021 125.593 302.094 125.593C306.166 125.593 309.468 128.894 309.468 132.967V136.656V147.719C310.963 145.595 313.005 143.902 315.592 142.64C318.18 141.377 321.084 140.745 324.304 140.745Z" fill="#4EA8BB"/>
<path d="M235.273 165.196C235.273 160.26 236.193 155.926 238.034 152.195C239.931 148.465 242.49 145.595 245.71 143.586C248.93 141.577 252.524 140.573 256.492 140.573C259.885 140.573 262.846 141.261 265.376 142.639C267.964 144.016 269.948 145.824 271.328 148.063C271.328 144.306 274.373 141.261 278.129 141.261H278.703C282.776 141.261 286.077 144.563 286.077 148.636V181.928C286.077 186.001 282.776 189.302 278.703 189.302H278.129C274.373 189.302 271.328 186.257 271.328 182.501C269.89 184.739 267.878 186.547 265.29 187.925C262.76 189.302 259.798 189.991 256.406 189.991C252.496 189.991 248.93 188.987 245.71 186.978C242.49 184.911 239.931 182.013 238.034 178.282C236.193 174.494 235.273 170.132 235.273 165.196ZM271.328 165.282C271.328 161.608 270.293 158.71 268.223 156.586C266.21 154.463 263.737 153.401 260.805 153.401C257.872 153.401 255.371 154.463 253.301 156.586C251.288 158.652 250.282 161.522 250.282 165.196C250.282 168.869 251.288 171.796 253.301 173.977C255.371 176.101 257.872 177.163 260.805 177.163C263.737 177.163 266.21 176.101 268.223 173.977C270.293 171.854 271.328 168.955 271.328 165.282Z" fill="#4EA8BB"/>
<path d="M225.968 128.863C230.883 128.863 234.472 133.51 233.23 138.265L222.181 180.57C220.838 185.714 216.192 189.302 210.876 189.302C205.651 189.302 201.062 185.834 199.635 180.808L192.385 155.266L184.849 180.902C183.385 185.882 178.815 189.302 173.624 189.302C168.272 189.302 163.603 185.67 162.285 180.483L151.543 138.198C150.341 133.464 153.918 128.863 158.804 128.863C162.38 128.863 165.457 131.391 166.152 134.899L173.668 172.858L181.914 147.99C183.428 143.424 187.697 140.343 192.507 140.343C197.366 140.343 201.667 143.487 203.141 148.117L211.016 172.858L218.608 134.897C219.309 131.389 222.39 128.863 225.968 128.863Z" fill="#4EA8BB"/>
<path d="M459.384 136.9C461.051 138.392 463.179 139.138 465.767 139.138C468.297 139.138 470.367 138.392 471.977 136.9C473.645 135.35 474.478 133.456 474.478 131.217C474.478 128.921 473.645 127.027 471.977 125.535C470.367 123.985 468.297 123.21 465.767 123.21C463.179 123.21 461.051 123.985 459.384 125.535C457.774 127.027 456.969 128.921 456.969 131.217C456.969 133.456 457.774 135.35 459.384 136.9Z" fill="#FF9441"/>
</g>
</svg>
