<svg width="1201" height="630" viewBox="0 0 1201 630" fill="none" xmlns="http://www.w3.org/2000/svg">
<mask id="mask0_2188_1666" style="mask-type:alpha" maskUnits="userSpaceOnUse" x="0" y="0" width="1201" height="630">
<rect width="1201" height="630" fill="#D9D9D9"/>
</mask>
<g mask="url(#mask0_2188_1666)">
<path d="M-634 0H1834.67V630H-634V0Z" fill="#FEFBF8"/>
<ellipse cx="856.414" cy="309.833" rx="78.75" ry="78.1667" fill="#FBBF81"/>
<path d="M1716.6 639.462C1716.6 821.846 1421.82 969.696 1043.8 969.696C665.781 969.696 359.336 821.846 359.336 639.462C359.336 457.079 665.781 309.228 1043.8 309.228C1421.82 309.228 1716.6 457.079 1716.6 639.462Z" fill="#DBECEC"/>
<path d="M446.115 557.578C446.115 759.378 242.974 922.969 -7.61246 922.969C-258.199 922.969 -576.244 849.314 -576.25 637.583C-576.256 434.089 -258.199 192.187 -7.61246 192.187C242.974 192.187 446.115 355.778 446.115 557.578Z" fill="#F4E2CA"/>
<path d="M369.974 469.178C149.251 473.731 41.7637 579.714 8.83594 633.5H1407.32H1790.34C1741.97 566.482 1584.64 501.054 1439.16 501.054C1280.37 501.054 1205.57 577.408 1006.28 577.408C783.583 577.408 625.185 463.913 369.974 469.178Z" fill="#F8CB9E"/>
<path d="M342.192 404.343L422.213 328.612C423.76 327.149 426.182 327.153 427.723 328.623L503.542 400.953C504.312 401.688 504.757 402.7 504.78 403.764L506.916 506.432C506.962 508.65 505.196 510.481 502.978 510.515L343.136 512.937C340.874 512.972 339.034 511.126 339.076 508.864L340.942 407.174C340.962 406.101 341.412 405.08 342.192 404.343Z" fill="#EB9660"/>
<path d="M211.859 442.813C211.859 501.69 193.258 510.781 170.312 510.781C147.367 510.781 128.766 497.002 128.766 442.813C128.766 402.686 147.367 365.469 170.312 365.469C193.258 365.469 211.859 402.686 211.859 442.813Z" fill="#56A6AD"/>
<path d="M163.023 509.483C163.032 508.385 163.925 507.5 165.023 507.5H175.642C176.727 507.5 177.615 508.365 177.642 509.45L178.95 561.7C178.978 562.824 178.075 563.75 176.951 563.75H164.587C163.476 563.75 162.578 562.844 162.587 561.733L163.023 509.483Z" fill="#56A6AD"/>
<path d="M272.419 511.477C272.419 548.452 255.441 548.75 242.139 548.75C228.838 548.75 211.859 545.881 211.859 511.477C211.859 489.472 225.416 469.063 242.139 469.063C258.862 469.063 272.419 489.472 272.419 511.477Z" fill="#56A6AD"/>
<path d="M236.878 525.052C236.908 523.969 237.794 523.107 238.877 523.107H246.245C247.328 523.107 248.214 523.969 248.244 525.052L249.542 572.159C249.573 573.284 248.669 574.214 247.543 574.214H237.579C236.453 574.214 235.549 573.284 235.58 572.159L236.878 525.052Z" fill="#56A6AD"/>
<path d="M808.897 528.893C790.295 562.172 770.901 578.386 767.936 576.927C764.972 575.468 782.873 542.351 792.642 522.562C802.411 502.774 807.845 503.894 811.615 506.669C817.286 510.843 813.725 520.256 808.897 528.893Z" fill="#55A3A5"/>
<path d="M721.08 547.15C734.237 562.383 766.493 580.618 770.283 578.203C775.128 575.116 751.62 554.647 738.433 539.439C725.246 524.231 718.245 525.831 715.189 528.889C712.622 531.458 714.42 539.439 721.08 547.15Z" fill="#55A3A5"/>
<path d="M737.005 520.218C748.374 539.642 763.482 582.012 770.745 578.437C775.453 576.12 762.826 535.284 752.856 515.089C742.887 494.894 737.007 491.428 732.492 494.101C729.199 496.051 729.099 506.71 737.005 520.218Z" fill="#EC955F"/>
<path d="M810.474 564.516C797.971 573.306 770.838 580.489 769.259 578.239C767.68 575.989 788.562 562.027 801.085 553.265C813.607 544.503 817.119 546.901 819.155 550.217C820.865 553.003 816.079 560.574 810.474 564.516Z" fill="#EC955F"/>
<path d="M784.327 501.531C785.148 530.274 775.535 576.68 771.446 576.797C767.357 576.913 769.468 540.04 765.263 497.489C763.293 477.562 768.107 470.592 772.196 470.476C776.286 470.359 783.507 472.788 784.327 501.531Z" fill="#EC955F"/>
<path d="M1081.09 376.441C1081.11 375.318 1082.05 374.432 1083.17 374.479L1091.33 374.823C1092.38 374.867 1093.22 375.719 1093.25 376.771L1094.42 423.753C1094.45 424.877 1093.54 425.803 1092.42 425.803H1082.23C1081.11 425.803 1080.21 424.885 1080.23 423.766L1081.09 376.441Z" fill="#56A5AC"/>
<path d="M1084.67 254.225C1086.2 251.668 1089.88 251.639 1091.46 254.159L1117.36 295.317C1119.29 298.391 1117.41 302.423 1113.8 302.865C1107.14 303.683 1097.44 304.77 1090.13 305.167C1082.13 305.601 1071.39 305.509 1064.16 305.369C1060.48 305.298 1058.21 301.398 1059.93 298.145C1063.09 292.169 1067.68 283.563 1071.27 277.171C1075.33 269.942 1081.08 260.241 1084.67 254.225Z" fill="#56A5AC"/>
<path d="M1086.25 290.032C1087.77 287.73 1091.1 287.624 1092.75 289.838C1097.12 295.702 1104.77 306.091 1110.01 313.82C1114.6 320.575 1120.41 329.82 1124.31 336.103C1126.29 339.289 1124.16 343.398 1120.41 343.617C1112.06 344.106 1099.02 344.782 1089.37 344.87C1080.1 344.954 1067.65 344.553 1059.39 344.23C1055.52 344.078 1053.33 339.759 1055.47 336.527L1086.25 290.032Z" fill="#56A5AC"/>
<path d="M1085.42 327.152C1087.11 325.068 1090.33 325.246 1091.81 327.487L1127.02 380.781C1128.68 383.291 1127.08 386.651 1124.08 386.919C1115.03 387.729 1098.51 389.058 1086.57 389.154C1074.9 389.247 1058.73 388.234 1049.89 387.603C1046.94 387.392 1045.27 384.161 1046.82 381.635C1051.09 374.661 1058.66 362.507 1064.65 354.032C1070.91 345.169 1080.39 333.338 1085.42 327.152Z" fill="#56A5AC"/>
<path d="M999.455 385.608C999.474 384.483 1000.42 383.595 1001.54 383.645L1008.84 383.966C1009.89 384.013 1010.72 384.865 1010.75 385.917L1011.83 431.39C1011.86 432.513 1010.95 433.437 1009.83 433.437H1000.66C999.542 433.437 998.641 432.521 998.66 431.403L999.455 385.608Z" fill="#2F7D81"/>
<path d="M1007.58 298.707C1006.07 296.095 1002.32 296.062 1000.74 298.637L981.563 329.955C980.059 332.41 981.563 335.59 984.419 335.95C989.56 336.596 996.981 337.45 1002.58 337.762C1008.71 338.103 1016.91 338.035 1022.49 337.925C1025.41 337.868 1027.23 334.785 1025.9 332.187C1023.46 327.447 1019.91 320.625 1017.14 315.558C1014.29 310.338 1010.36 303.492 1007.58 298.707Z" fill="#2F7D81"/>
<path d="M999.807 326.902C1001.33 324.546 1004.73 324.443 1006.37 326.715C1009.82 331.485 1015.15 338.957 1018.89 344.625C1022.77 350.503 1027.8 358.76 1030.76 363.681C1031.91 365.594 1030.64 368.028 1028.41 368.166C1022.12 368.555 1011.01 369.175 1002.95 369.25C995.848 369.316 986.323 369.003 979.95 368.748C976.876 368.625 975.126 365.215 976.792 362.629L999.807 326.902Z" fill="#2F7D81"/>
<path d="M1002.65 356.229C1004.34 354.086 1007.62 354.26 1009.1 356.555L1034.87 396.638C1036.49 399.145 1034.89 402.458 1031.92 402.724C1024.73 403.37 1012.99 404.3 1004.35 404.371C995.917 404.44 984.427 403.74 977.4 403.239C974.47 403.031 972.811 399.841 974.319 397.321C977.693 391.679 983.098 382.816 987.432 376.516C991.948 369.952 998.626 361.336 1002.65 356.229Z" fill="#2F7D81"/>
<path d="M520.167 211.405H532.479C534.639 211.405 535.623 212.413 535.623 214.333C535.623 214.405 535.623 214.477 535.623 214.549C535.527 218.965 534.279 222.517 532.047 225.157C530.055 227.509 527.247 229.141 523.743 230.029C523.599 230.053 523.455 230.077 523.311 230.077C522.783 230.077 522.423 229.789 522.279 229.309C522.255 229.189 522.231 229.069 522.231 228.949C522.231 228.493 522.519 228.157 523.047 228.037C526.431 227.173 529.047 225.589 530.751 223.381C532.479 221.221 533.367 218.269 533.463 214.525C533.463 214.501 533.463 214.477 533.463 214.453C533.463 213.661 533.127 213.373 532.215 213.373H520.839C519.927 213.373 519.663 213.565 519.663 214.381V218.893C519.663 219.469 519.207 219.853 518.607 219.853C517.983 219.853 517.527 219.469 517.527 218.893V213.925C517.527 212.221 518.487 211.405 520.167 211.405ZM559.527 221.437H541.263C540.663 221.437 540.327 221.053 540.327 220.405C540.327 219.781 540.663 219.325 541.287 219.325H559.503C560.127 219.325 560.463 219.781 560.463 220.405C560.463 221.053 560.127 221.437 559.527 221.437ZM575.703 215.461V229.693C575.703 230.317 575.199 230.605 574.623 230.605C574.047 230.605 573.639 230.317 573.639 229.693V215.461H565.599C565.095 215.461 564.759 215.053 564.759 214.501C564.759 213.973 565.095 213.517 565.599 213.517H573.639V210.709C573.639 210.085 574.047 209.797 574.623 209.797C575.199 209.797 575.703 210.085 575.703 210.709V213.517H584.175C584.679 213.517 585.015 213.973 585.015 214.501C585.015 215.053 584.679 215.461 584.175 215.461H575.703ZM567.975 218.725C568.071 218.173 568.455 217.909 568.911 217.909C569.031 217.909 569.127 217.933 569.247 217.957C569.727 218.029 570.039 218.389 570.039 218.917C570.039 218.989 570.039 219.085 570.015 219.181C569.343 222.445 568.047 225.637 566.439 227.917C566.199 228.277 565.839 228.445 565.503 228.445C565.287 228.445 565.095 228.397 564.927 228.277C564.591 228.085 564.423 227.773 564.423 227.437C564.423 227.221 564.495 226.981 564.639 226.789C566.199 224.677 567.423 221.629 567.975 218.725ZM580.191 217.957C580.287 217.933 580.383 217.933 580.479 217.933C580.935 217.933 581.343 218.173 581.463 218.749C582.039 221.677 583.263 224.629 584.991 226.765C585.111 226.957 585.183 227.197 585.183 227.413C585.183 227.773 585.015 228.085 584.751 228.277C584.535 228.397 584.319 228.469 584.103 228.469C583.767 228.469 583.431 228.301 583.167 227.941C581.535 225.757 580.071 222.421 579.423 219.181C579.399 219.085 579.399 218.989 579.399 218.893C579.399 218.389 579.735 218.029 580.191 217.957ZM593.007 211.285V221.821C593.007 222.445 592.575 222.805 591.927 222.805C591.303 222.805 590.847 222.469 590.847 221.845V211.309C590.847 210.685 591.303 210.325 591.927 210.325C592.575 210.325 593.007 210.661 593.007 211.285ZM602.751 218.821V211.333C602.751 210.709 603.159 210.325 603.783 210.325C604.431 210.325 604.911 210.661 604.911 211.285V219.109C604.911 222.709 603.999 225.229 601.959 227.029C600.063 228.685 597.255 229.789 594.591 230.101C594.543 230.101 594.471 230.101 594.423 230.101C593.847 230.101 593.463 229.765 593.343 229.261C593.319 229.165 593.319 229.093 593.319 228.997C593.319 228.517 593.631 228.133 594.183 228.061C596.607 227.749 599.007 226.789 600.519 225.421C602.079 224.005 602.751 221.941 602.751 218.821ZM623.652 228.583H633.002C633.452 228.583 633.727 228.958 633.727 229.508C633.727 230.033 633.452 230.408 633.002 230.408H611.802C611.352 230.408 611.102 230.033 611.102 229.508C611.102 228.958 611.352 228.583 611.802 228.583H621.627V222.258H615.002C614.552 222.258 614.252 221.883 614.252 221.358C614.252 220.833 614.552 220.458 615.002 220.458H621.627V215.233H615.777C614.952 216.933 613.977 218.533 612.877 219.908C612.652 220.158 612.402 220.283 612.152 220.283C611.902 220.283 611.627 220.183 611.427 219.983C611.202 219.808 611.077 219.558 611.077 219.308C611.077 219.083 611.177 218.833 611.352 218.608C613.277 216.283 614.902 213.108 615.727 209.933C615.852 209.508 616.152 209.308 616.552 209.308C616.652 209.308 616.777 209.333 616.902 209.358C617.377 209.483 617.677 209.808 617.677 210.183C617.677 210.258 617.677 210.358 617.627 210.433C617.352 211.408 616.977 212.433 616.552 213.433H621.627V209.033C621.627 208.558 622.052 208.258 622.627 208.258C623.227 208.258 623.652 208.558 623.652 209.033V213.433H632.077C632.527 213.433 632.777 213.783 632.777 214.333C632.777 214.858 632.527 215.233 632.077 215.233H623.652V220.458H630.752C631.202 220.458 631.477 220.833 631.477 221.358C631.477 221.883 631.202 222.258 630.752 222.258H623.652V228.583ZM652.427 221.583H656.577C658.052 221.583 658.702 222.133 658.702 223.558V228.608C658.702 230.058 658.052 230.633 656.577 230.633H646.902C645.427 230.633 644.752 230.058 644.752 228.608V223.558C644.752 222.133 645.427 221.583 646.902 221.583H650.577V217.483H643.877C643.402 217.483 643.102 217.158 643.102 216.583C643.102 216.033 643.402 215.683 643.877 215.683H650.577V211.808C648.677 212.083 646.802 212.258 645.052 212.383C645.027 212.383 645.027 212.383 645.002 212.383C644.477 212.383 644.177 212.058 644.127 211.533C644.127 211.508 644.127 211.458 644.127 211.433C644.127 210.883 644.527 210.608 644.952 210.583C649.002 210.333 653.852 209.633 657.527 208.408C657.652 208.358 657.777 208.333 657.902 208.333C658.252 208.333 658.552 208.483 658.702 208.908C658.752 209.033 658.777 209.183 658.777 209.308C658.777 209.708 658.527 210.058 658.127 210.183C656.402 210.708 654.452 211.158 652.427 211.508V215.683H659.377C659.852 215.683 660.152 216.008 660.152 216.583C660.152 217.133 659.852 217.483 659.377 217.483H652.427V221.583ZM647.352 228.858H656.052C656.552 228.858 656.802 228.733 656.802 228.208V223.958C656.802 223.433 656.552 223.308 656.052 223.308H647.352C646.877 223.308 646.652 223.433 646.652 223.958V228.208C646.652 228.733 646.877 228.858 647.352 228.858ZM639.602 208.908C640.602 209.533 642.102 210.758 642.952 211.658C643.177 211.908 643.277 212.158 643.277 212.408C643.277 212.658 643.177 212.883 643.002 213.058C642.827 213.258 642.552 213.358 642.277 213.358C642.027 213.358 641.752 213.258 641.577 213.058C640.752 212.183 639.302 211.058 638.327 210.383C638.127 210.233 638.002 210.008 638.002 209.758C638.002 209.558 638.077 209.333 638.252 209.133C638.452 208.883 638.777 208.758 639.077 208.758C639.252 208.758 639.427 208.808 639.602 208.908ZM638.452 215.083C639.452 215.683 641.027 216.958 641.852 217.733C642.127 217.983 642.227 218.233 642.227 218.483C642.227 218.733 642.127 218.958 641.952 219.133C641.752 219.333 641.477 219.458 641.177 219.458C640.927 219.458 640.702 219.383 640.502 219.208C639.677 218.458 638.277 217.208 637.202 216.533C637.002 216.408 636.877 216.158 636.877 215.908C636.877 215.708 636.952 215.508 637.102 215.333C637.327 215.083 637.602 214.933 637.927 214.933C638.102 214.933 638.277 214.983 638.452 215.083ZM642.052 222.358C642.502 222.533 642.677 222.858 642.677 223.183C642.677 223.308 642.652 223.433 642.602 223.558C641.652 225.708 640.102 228.733 638.877 230.458C638.652 230.758 638.352 230.908 638.052 230.908C637.827 230.908 637.602 230.833 637.402 230.708C637.152 230.533 637.002 230.308 637.002 230.033C637.002 229.783 637.102 229.533 637.327 229.258C638.502 227.608 639.927 224.833 640.802 222.758C640.927 222.433 641.227 222.258 641.577 222.258C641.727 222.258 641.877 222.283 642.052 222.358ZM675.007 213.229C674.791 216.877 674.263 220.237 673.423 222.805C672.583 225.277 671.887 226.357 671.047 227.149C670.279 227.893 669.271 228.205 668.287 228.205C665.791 228.205 663.799 225.781 663.799 221.749C663.799 215.773 667.975 211.453 674.527 211.453C680.191 211.453 683.935 215.149 683.935 220.429C683.935 223.813 682.471 226.381 679.975 227.965C678.583 228.853 676.855 229.405 674.935 229.693C674.839 229.717 674.743 229.717 674.671 229.717C674.167 229.717 673.759 229.477 673.663 228.877C673.639 228.805 673.639 228.709 673.639 228.637C673.639 228.157 673.951 227.797 674.503 227.701C676.255 227.461 678.103 226.861 679.303 225.973C680.815 224.845 681.919 222.901 681.919 220.381C681.919 216.325 679.255 213.373 675.007 213.229ZM673.015 213.301C668.623 213.709 665.743 217.069 665.743 221.725C665.743 224.605 666.967 226.117 668.239 226.117C668.791 226.117 669.343 225.925 669.847 225.421C670.375 224.917 670.927 223.885 671.503 222.133C672.247 219.877 672.847 216.589 673.015 213.301ZM543.289 249.565L531.817 249.709C531.241 249.709 530.929 249.301 530.929 248.653C530.929 248.077 531.265 247.693 531.817 247.693L544.033 247.573C545.065 247.573 545.737 247.909 546.169 248.533C546.361 248.869 546.481 249.253 546.481 249.733C546.481 250.141 546.385 250.621 546.217 251.125C545.425 253.261 544.081 255.301 542.401 257.365C545.089 259.453 547.057 261.013 549.073 263.341C549.289 263.605 549.409 263.893 549.409 264.181C549.409 264.469 549.289 264.733 549.097 264.949C548.881 265.189 548.569 265.309 548.257 265.309C547.945 265.309 547.633 265.189 547.393 264.925C545.593 262.765 543.721 260.965 541.057 258.877C538.393 261.805 534.625 264.133 530.905 265.525C530.713 265.597 530.521 265.645 530.329 265.645C529.921 265.645 529.585 265.453 529.441 265.045C529.393 264.925 529.369 264.781 529.369 264.637C529.369 264.205 529.633 263.773 530.089 263.605C532.993 262.501 536.041 260.773 538.609 258.421C541.105 256.117 543.097 253.309 544.033 250.621C544.105 250.405 544.153 250.237 544.153 250.093C544.153 249.733 543.889 249.565 543.289 249.565ZM568.969 250.141L560.929 250.285C559.513 252.541 557.497 254.701 555.337 256.165C555.145 256.309 554.929 256.381 554.713 256.381C554.425 256.381 554.161 256.237 553.945 255.949C553.825 255.781 553.753 255.589 553.753 255.373C553.753 255.037 553.897 254.701 554.209 254.485C555.601 253.501 556.921 252.277 557.977 250.957C559.105 249.541 559.969 248.053 560.761 246.037C560.953 245.557 561.217 245.413 561.601 245.413C561.721 245.413 561.841 245.437 561.985 245.437C562.393 245.509 562.753 245.773 562.753 246.229C562.753 246.301 562.753 246.373 562.729 246.445C562.633 246.925 562.297 247.693 561.937 248.437L569.641 248.317C571.129 248.293 572.041 249.157 572.041 250.645C572.041 250.933 572.017 251.245 571.945 251.581C571.345 254.701 570.001 257.677 567.889 260.197C565.417 263.149 561.937 265.501 557.401 266.725C557.233 266.749 557.089 266.773 556.945 266.773C556.537 266.773 556.225 266.605 556.081 266.197C556.033 266.053 556.009 265.909 556.009 265.765C556.009 265.357 556.273 264.997 556.753 264.853C560.401 263.773 563.209 262.069 565.513 259.765C563.737 258.109 561.769 256.597 560.017 255.517C559.753 255.349 559.633 255.109 559.633 254.821C559.633 254.605 559.729 254.389 559.897 254.197C560.089 253.933 560.377 253.813 560.641 253.813C560.857 253.813 561.049 253.885 561.265 254.005C562.705 254.869 564.961 256.381 566.881 258.253C568.417 256.261 569.353 253.981 569.857 251.317C569.905 251.125 569.929 250.957 569.929 250.813C569.929 250.357 569.689 250.117 568.969 250.141ZM595.537 257.437H577.273C576.673 257.437 576.337 257.053 576.337 256.405C576.337 255.781 576.673 255.325 577.297 255.325H595.513C596.137 255.325 596.473 255.781 596.473 256.405C596.473 257.053 596.137 257.437 595.537 257.437ZM605.017 255.205V265.525C605.017 266.173 604.561 266.437 603.961 266.437C603.313 266.437 602.905 266.173 602.905 265.525V246.877C602.905 246.229 603.313 245.965 603.961 245.965C604.561 245.965 605.017 246.229 605.017 246.901V253.069C608.641 254.029 613.105 255.637 616.729 257.365C617.185 257.581 617.377 257.941 617.377 258.373C617.377 258.541 617.353 258.709 617.281 258.901C617.137 259.309 616.753 259.597 616.321 259.597C616.153 259.597 615.985 259.549 615.817 259.477C612.649 257.869 608.521 256.213 605.017 255.205ZM637.132 252.758L633.732 253.908V263.508C633.732 264.408 633.882 264.658 634.907 264.783C635.707 264.883 637.082 264.908 638.307 264.908C639.707 264.908 640.957 264.858 641.907 264.708C642.682 264.558 643.057 264.308 643.257 263.883C643.457 263.383 643.582 262.508 643.607 261.633C643.632 261.058 644.007 260.808 644.557 260.808C644.582 260.808 644.607 260.808 644.632 260.808C645.182 260.833 645.507 261.133 645.507 261.708C645.507 261.708 645.507 261.733 645.507 261.758C645.457 263.058 645.207 264.308 644.932 264.908C644.532 265.758 643.907 266.283 642.207 266.508C641.132 266.658 639.932 266.733 638.257 266.733C636.782 266.733 635.357 266.683 634.282 266.533C632.282 266.258 631.882 265.483 631.882 263.883V254.533L629.957 255.183C629.882 255.208 629.807 255.208 629.732 255.208C629.382 255.208 629.132 254.908 629.057 254.508C629.032 254.408 629.032 254.333 629.032 254.233C629.032 253.858 629.182 253.583 629.507 253.483L631.882 252.683V247.383C631.882 246.933 632.257 246.683 632.807 246.683C633.382 246.683 633.732 246.933 633.732 247.383V252.058L637.132 250.933V244.958C637.132 244.508 637.482 244.258 638.032 244.258C638.607 244.258 638.982 244.508 638.982 244.958V250.308L642.032 249.283C642.407 249.158 642.732 249.108 643.057 249.108C644.107 249.108 644.832 249.808 644.832 250.983C644.832 253.533 644.632 256.308 644.382 257.708C644.107 259.183 643.332 259.808 641.907 259.808C641.307 259.808 640.657 259.733 640.232 259.608C639.882 259.533 639.657 259.258 639.657 258.833C639.657 258.758 639.657 258.658 639.682 258.558C639.782 258.133 640.057 257.933 640.382 257.933C640.457 257.933 640.532 257.933 640.607 257.958C640.932 258.033 641.307 258.108 641.682 258.108C642.282 258.108 642.532 257.858 642.657 257.158C642.882 256.058 643.007 253.433 643.007 251.783C643.007 251.258 642.882 251.033 642.532 251.033C642.407 251.033 642.257 251.058 642.057 251.108L638.982 252.133V261.208C638.982 261.683 638.607 261.933 638.032 261.933C637.482 261.933 637.132 261.683 637.132 261.208V252.758ZM627.182 250.883H629.282C629.732 250.883 629.957 251.233 629.957 251.733C629.957 252.233 629.732 252.608 629.282 252.608H627.182V260.533C627.857 260.233 628.507 259.908 629.082 259.583C629.257 259.483 629.432 259.433 629.582 259.433C629.857 259.433 630.082 259.583 630.207 259.908C630.282 260.083 630.332 260.258 630.332 260.408C630.332 260.708 630.182 260.958 629.832 261.133C628.132 262.158 625.457 263.333 623.532 264.008C623.382 264.058 623.257 264.083 623.132 264.083C622.757 264.083 622.482 263.858 622.332 263.433C622.282 263.283 622.257 263.158 622.257 263.008C622.257 262.658 622.457 262.358 622.832 262.233C623.607 261.983 624.482 261.658 625.332 261.333V252.608H623.032C622.582 252.608 622.357 252.233 622.357 251.733C622.357 251.233 622.582 250.883 623.032 250.883H625.332V245.083C625.332 244.633 625.682 244.383 626.257 244.383C626.807 244.383 627.182 244.633 627.182 245.083V250.883ZM661.207 249.058V251.883H667.007C668.482 251.883 669.132 252.508 669.132 253.958V258.108C669.132 259.533 668.482 260.158 667.007 260.158H654.357C652.882 260.158 652.232 259.533 652.232 258.108V253.958C652.232 252.508 652.882 251.883 654.357 251.883H659.307V244.883C659.307 244.433 659.657 244.158 660.232 244.158C660.832 244.158 661.207 244.433 661.207 244.883V247.233H670.282C670.732 247.233 671.007 247.658 671.007 248.133C671.007 248.658 670.732 249.058 670.282 249.058H661.207ZM654.932 258.408H666.457C666.957 258.408 667.207 258.258 667.207 257.708V254.333C667.207 253.783 666.957 253.633 666.457 253.633H654.932C654.432 253.633 654.182 253.783 654.182 254.333V257.708C654.182 258.258 654.432 258.408 654.932 258.408ZM653.407 261.133C653.857 261.283 654.107 261.583 654.107 261.958C654.107 262.083 654.082 262.233 654.032 262.358C653.307 264.058 652.282 265.658 651.232 266.883C651.032 267.133 650.757 267.258 650.457 267.258C650.207 267.258 649.957 267.183 649.732 266.983C649.482 266.783 649.332 266.483 649.332 266.208C649.332 266.008 649.382 265.833 649.532 265.683C650.507 264.633 651.557 263.008 652.157 261.533C652.332 261.233 652.632 261.058 652.982 261.058C653.107 261.058 653.257 261.083 653.407 261.133ZM657.482 261.333C657.557 261.333 657.632 261.333 657.682 261.333C658.282 261.333 658.482 261.658 658.582 262.383C658.732 263.258 658.957 264.833 659.007 266.233C659.007 266.258 659.007 266.258 659.007 266.283C659.007 266.858 658.657 267.183 658.032 267.233C657.982 267.233 657.932 267.233 657.907 267.233C657.357 267.233 657.032 266.933 657.007 266.433C656.957 265.083 656.782 263.558 656.657 262.633C656.632 262.508 656.632 262.408 656.632 262.308C656.632 261.758 656.882 261.408 657.482 261.333ZM662.257 261.333C662.407 261.283 662.532 261.258 662.657 261.258C663.032 261.258 663.332 261.433 663.482 261.783C664.082 263.008 664.732 264.558 665.157 266.008C665.182 266.083 665.182 266.133 665.182 266.208C665.182 266.633 664.957 266.983 664.407 267.133C664.282 267.183 664.132 267.208 664.007 267.208C663.607 267.208 663.282 266.958 663.157 266.558C662.807 265.233 662.232 263.608 661.657 262.333C661.632 262.233 661.607 262.133 661.607 262.058C661.607 261.758 661.832 261.458 662.257 261.333ZM667.357 261.108C667.557 261.008 667.757 260.933 667.957 260.933C668.232 260.933 668.457 261.033 668.657 261.308C669.707 262.608 670.757 264.208 671.532 265.758C671.607 265.908 671.632 266.033 671.632 266.158C671.632 266.508 671.407 266.808 671.057 267.008C670.857 267.108 670.682 267.158 670.482 267.158C670.182 267.158 669.907 267.008 669.732 266.708C668.957 265.183 668.007 263.608 667.057 262.283C666.932 262.133 666.882 261.958 666.882 261.808C666.882 261.533 667.057 261.283 667.357 261.108Z" fill="#3C3C3C"/>
<path d="M564.281 65.3933H574.541C576.341 65.3933 577.161 66.2333 577.161 67.8333C577.161 67.8933 577.161 67.9533 577.161 68.0133C577.081 71.6933 576.041 74.6533 574.181 76.8533C572.521 78.8133 570.181 80.1733 567.261 80.9133C567.141 80.9333 567.021 80.9533 566.901 80.9533C566.461 80.9533 566.161 80.7133 566.041 80.3133C566.021 80.2133 566.001 80.1133 566.001 80.0133C566.001 79.6333 566.241 79.3533 566.681 79.2533C569.501 78.5333 571.681 77.2133 573.101 75.3733C574.541 73.5733 575.281 71.1133 575.361 67.9933C575.361 67.9733 575.361 67.9533 575.361 67.9333C575.361 67.2733 575.081 67.0333 574.321 67.0333H564.841C564.081 67.0333 563.861 67.1933 563.861 67.8733V71.6333C563.861 72.1133 563.481 72.4333 562.981 72.4333C562.461 72.4333 562.081 72.1133 562.081 71.6333V67.4933C562.081 66.0733 562.881 65.3933 564.281 65.3933ZM592.561 68.7733V80.6333C592.561 81.1533 592.141 81.3933 591.661 81.3933C591.181 81.3933 590.841 81.1533 590.841 80.6333V68.7733H584.141C583.721 68.7733 583.441 68.4333 583.441 67.9733C583.441 67.5333 583.721 67.1533 584.141 67.1533H590.841V64.8133C590.841 64.2933 591.181 64.0533 591.661 64.0533C592.141 64.0533 592.561 64.2933 592.561 64.8133V67.1533H599.621C600.041 67.1533 600.321 67.5333 600.321 67.9733C600.321 68.4333 600.041 68.7733 599.621 68.7733H592.561ZM586.121 71.4933C586.201 71.0333 586.521 70.8133 586.901 70.8133C587.001 70.8133 587.081 70.8333 587.181 70.8533C587.581 70.9133 587.841 71.2133 587.841 71.6533C587.841 71.7133 587.841 71.7933 587.821 71.8733C587.261 74.5933 586.181 77.2533 584.841 79.1533C584.641 79.4533 584.341 79.5933 584.061 79.5933C583.881 79.5933 583.721 79.5533 583.581 79.4533C583.301 79.2933 583.161 79.0333 583.161 78.7533C583.161 78.5733 583.221 78.3733 583.341 78.2133C584.641 76.4533 585.661 73.9133 586.121 71.4933ZM596.301 70.8533C596.381 70.8333 596.461 70.8333 596.541 70.8333C596.921 70.8333 597.261 71.0333 597.361 71.5133C597.841 73.9533 598.861 76.4133 600.301 78.1933C600.401 78.3533 600.461 78.5533 600.461 78.7333C600.461 79.0333 600.321 79.2933 600.101 79.4533C599.921 79.5533 599.741 79.6133 599.561 79.6133C599.281 79.6133 599.001 79.4733 598.781 79.1733C597.421 77.3533 596.201 74.5733 595.661 71.8733C595.641 71.7933 595.641 71.7133 595.641 71.6333C595.641 71.2133 595.921 70.9133 596.301 70.8533ZM607.981 65.2933V74.0733C607.981 74.5933 607.621 74.8933 607.081 74.8933C606.561 74.8933 606.181 74.6133 606.181 74.0933V65.3133C606.181 64.7933 606.561 64.4933 607.081 64.4933C607.621 64.4933 607.981 64.7733 607.981 65.2933ZM616.101 71.5733V65.3333C616.101 64.8133 616.441 64.4933 616.961 64.4933C617.501 64.4933 617.901 64.7733 617.901 65.2933V71.8133C617.901 74.8133 617.141 76.9133 615.441 78.4133C613.861 79.7933 611.521 80.7133 609.301 80.9733C609.261 80.9733 609.201 80.9733 609.161 80.9733C608.681 80.9733 608.361 80.6933 608.261 80.2733C608.241 80.1933 608.241 80.1333 608.241 80.0533C608.241 79.6533 608.501 79.3333 608.961 79.2733C610.981 79.0133 612.981 78.2133 614.241 77.0733C615.541 75.8933 616.101 74.1733 616.101 71.5733ZM633.481 70.1933V80.3933C633.481 80.8933 633.101 81.1533 632.601 81.1533C632.081 81.1533 631.701 80.9133 631.701 80.3733V71.3533C629.321 72.7733 626.841 73.9133 624.581 74.6533C624.421 74.7133 624.281 74.7333 624.141 74.7333C623.801 74.7333 623.561 74.5533 623.401 74.1733C623.381 74.0733 623.361 73.9733 623.361 73.8733C623.361 73.5533 623.561 73.2133 623.961 73.0733C626.301 72.3133 628.981 71.0933 631.661 69.3533C633.861 67.9333 635.481 66.5733 637.101 64.7333C637.281 64.5333 637.541 64.4133 637.781 64.4133C637.981 64.4133 638.181 64.4733 638.361 64.6133C638.601 64.7933 638.721 65.0333 638.721 65.2733C638.721 65.4533 638.641 65.6333 638.501 65.8133C637.261 67.2333 635.521 68.7733 633.481 70.1933Z" fill="#4EA8BB"/>
<path d="M765.286 119.584C769.75 119.584 773.369 123.203 773.369 127.667V161.009C773.369 165.474 769.75 169.092 765.286 169.092C760.822 169.092 757.203 165.474 757.203 161.009V127.667C757.203 123.203 760.822 119.584 765.286 119.584Z" fill="#4EA8BB"/>
<path d="M737.783 114.111C734.947 114.111 732.615 113.293 730.788 111.657C729.023 109.959 728.141 107.883 728.141 105.43C728.141 102.913 729.023 100.837 730.788 99.2017C732.615 97.5032 734.947 96.6539 737.783 96.6539C740.556 96.6539 742.825 97.5032 744.59 99.2017C746.418 100.837 747.331 102.913 747.331 105.43C747.331 107.883 746.418 109.959 744.59 111.657C742.825 113.293 740.556 114.111 737.783 114.111ZM737.736 119.584C742.2 119.584 745.819 123.202 745.819 127.666V161.009C745.819 165.473 742.2 169.092 737.736 169.092C733.272 169.092 729.653 165.473 729.653 161.009V127.666C729.653 123.202 733.272 119.584 737.736 119.584Z" fill="#4EA8BB"/>
<path d="M709.841 99.265C714.305 99.265 717.923 102.884 717.923 107.348V161.009C717.923 165.473 714.305 169.092 709.841 169.092C705.377 169.092 701.758 165.473 701.758 161.009V107.348C701.758 102.884 705.377 99.265 709.841 99.265Z" fill="#4EA8BB"/>
<path d="M665.593 169.846C660.426 169.846 655.762 168.745 651.602 166.544C647.506 164.342 644.26 161.196 641.865 157.107C639.533 153.018 638.367 148.238 638.367 142.765C638.367 137.355 639.565 132.605 641.96 128.516C644.354 124.364 647.632 121.187 651.791 118.986C655.951 116.784 660.615 115.683 665.783 115.683C670.951 115.683 675.614 116.784 679.774 118.986C683.933 121.187 687.211 124.364 689.606 128.516C692 132.605 693.198 137.355 693.198 142.765C693.198 148.175 691.969 152.956 689.511 157.107C687.116 161.196 683.807 164.342 679.585 166.544C675.425 168.745 670.761 169.846 665.593 169.846ZM665.593 155.881C668.682 155.881 671.297 154.748 673.44 152.484C675.646 150.219 676.749 146.979 676.749 142.765C676.749 138.55 675.677 135.31 673.534 133.045C671.455 130.781 668.871 129.648 665.783 129.648C662.631 129.648 660.016 130.781 657.936 133.045C655.856 135.247 654.816 138.487 654.816 142.765C654.816 146.979 655.825 150.219 657.842 152.484C659.921 154.748 662.505 155.881 665.593 155.881Z" fill="#4EA8BB"/>
<path d="M610.285 115.873C616.335 115.873 621.188 117.886 624.844 121.912C628.499 125.875 630.327 131.348 630.327 138.33V161.057C630.327 165.495 626.729 169.092 622.291 169.092C617.853 169.092 614.256 165.495 614.256 161.057V140.501C614.256 136.978 613.342 134.241 611.514 132.291C609.686 130.341 607.228 129.366 604.14 129.366C601.052 129.366 598.594 130.341 596.767 132.291C594.939 134.241 594.025 136.978 594.025 140.501V161.009C594.025 165.473 590.406 169.092 585.942 169.092C581.478 169.092 577.859 165.473 577.859 161.009V107.348C577.859 102.884 581.478 99.265 585.942 99.265C590.406 99.265 594.025 102.884 594.025 107.348V111.39V123.516C595.664 121.188 597.901 119.332 600.737 117.948C603.573 116.565 606.756 115.873 610.285 115.873Z" fill="#4EA8BB"/>
<path d="M512.703 142.67C512.703 137.26 513.712 132.511 515.728 128.422C517.808 124.333 520.613 121.187 524.142 118.986C527.671 116.784 531.61 115.683 535.959 115.683C539.677 115.683 542.923 116.438 545.696 117.948C548.532 119.457 550.706 121.439 552.219 123.892C552.219 119.775 555.557 116.438 559.674 116.438H560.302C564.766 116.438 568.385 120.057 568.385 124.521V161.009C568.385 165.473 564.766 169.091 560.302 169.091H559.674C555.557 169.091 552.219 165.754 552.219 161.637C550.643 164.09 548.438 166.072 545.602 167.582C542.829 169.091 539.583 169.846 535.864 169.846C531.579 169.846 527.671 168.745 524.142 166.544C520.613 164.279 517.808 161.102 515.728 157.013C513.712 152.861 512.703 148.08 512.703 142.67ZM552.219 142.765C552.219 138.739 551.085 135.562 548.816 133.234C546.61 130.907 543.9 129.743 540.686 129.743C537.471 129.743 534.73 130.907 532.461 133.234C530.255 135.499 529.152 138.644 529.152 142.67C529.152 146.696 530.255 149.905 532.461 152.295C534.73 154.623 537.471 155.786 540.686 155.786C543.9 155.786 546.61 154.623 548.816 152.295C551.085 149.967 552.219 146.791 552.219 142.765Z" fill="#4EA8BB"/>
<path d="M502.505 102.85C507.892 102.85 511.825 107.942 510.464 113.154L498.355 159.521C496.882 165.158 491.79 169.091 485.964 169.091C480.238 169.091 475.207 165.29 473.644 159.781L465.698 131.787L457.439 159.884C455.834 165.343 450.825 169.091 445.136 169.091C439.27 169.091 434.152 165.11 432.708 159.425L420.935 113.081C419.617 107.892 423.538 102.85 428.892 102.85C432.812 102.85 436.185 105.62 436.946 109.465L445.184 151.068L454.222 123.813C455.881 118.809 460.56 115.431 465.831 115.431C471.157 115.431 475.871 118.877 477.486 123.952L486.118 151.068L494.438 109.463C495.207 105.617 498.583 102.85 502.505 102.85Z" fill="#4EA8BB"/>
<path d="M758.334 111.657C760.162 113.293 762.494 114.111 765.33 114.111C768.103 114.111 770.372 113.293 772.137 111.657C773.964 109.959 774.878 107.883 774.878 105.43C774.878 102.913 773.964 100.837 772.137 99.2017C770.372 97.5032 768.103 96.6539 765.33 96.6539C762.494 96.6539 760.162 97.5032 758.334 99.2017C756.57 100.837 755.688 102.913 755.688 105.43C755.688 107.883 756.57 109.959 758.334 111.657Z" fill="#FF9441"/>
<path d="M93.3473 250.131C93.9075 269.74 84.8173 300.456 81.5769 300.548C78.3364 300.641 78.871 270.063 78.3108 250.455C77.7507 230.846 80.5923 229.072 83.8328 228.98C87.0732 228.888 92.7872 230.522 93.3473 250.131Z" fill="#F1985E"/>
<path d="M109.67 268.778C102.901 282.557 82.5254 302.859 80.2713 301.75C78.0171 300.641 89.582 279.686 96.3797 265.921C103.177 252.156 108.052 251.325 111.132 253.108C113.718 254.605 112.704 262.6 109.67 268.778Z" fill="#F1985E"/>
<path d="M60.345 263.954C68.2393 277.123 81.0321 303.141 83.2862 302.032C85.5404 300.923 78.1611 272.955 71.3634 259.19C64.5657 245.425 59.7558 243.496 56.6765 245.279C54.0903 246.776 54.8548 254.795 60.345 263.954Z" fill="#F1985E"/>
<path d="M110.308 292.875C101.633 298.971 82.3081 304.149 81.2452 302.635C80.1824 301.121 94.1737 292.315 102.862 286.239C111.549 280.162 114.883 281.428 116.249 283.663C117.396 285.54 114.197 290.142 110.308 292.875Z" fill="#F1985E"/>
<path d="M49.173 281.345C58.2474 291.85 79.4497 304.475 82.1981 302.694C85.7116 300.417 71.8447 287.619 62.7488 277.133C53.6529 266.647 47.0088 265.941 44.7702 268.162C42.8902 270.028 45.1048 276.635 49.173 281.345Z" fill="#F1985E"/>
</g>
</svg>
