<svg width="512" height="512" viewBox="0 0 512 512" fill="none" xmlns="http://www.w3.org/2000/svg">
<rect width="512" height="512" fill="white"/>
<path d="M231.506 195.068C235.734 178.515 252.58 168.524 269.133 172.751C285.685 176.979 295.677 193.825 291.449 210.378C285.84 232.338 277.346 270.009 265.247 301.413C259.201 317.106 251.411 333.594 241.098 346.667C230.968 359.508 214.497 373.766 191.119 373.766C169.296 373.766 153.398 360.804 143.48 349.467C133.216 337.733 125.007 322.906 118.456 308.72C105.279 280.189 95.42 246.559 89.3087 226.155C84.407 209.789 93.7004 192.549 110.066 187.647C126.432 182.745 143.672 192.039 148.574 208.404C154.998 229.851 163.638 258.998 174.622 282.781C180.15 294.751 185.437 303.465 190.046 308.734C190.453 309.199 190.83 309.608 191.175 309.969C191.58 309.512 192.03 308.976 192.525 308.349C197.18 302.449 202.317 292.666 207.517 279.17C217.91 252.195 225.186 219.811 231.506 195.068Z" fill="url(#paint0_linear_2121_667)"/>
<path d="M356.446 237.525C362.148 221.518 377.52 210.981 394.073 215.209C410.625 219.437 420.617 236.283 416.389 252.835C410.78 274.795 409.565 274.861 397.466 306.265C391.419 321.958 383.63 338.446 373.317 351.52C363.187 364.36 346.715 378.618 323.338 378.618C301.515 378.618 285.616 365.656 275.699 354.319C265.435 342.585 257.226 327.758 250.674 313.572C237.498 285.041 227.639 251.411 221.527 231.007C216.626 214.641 225.919 197.401 242.285 192.499C258.65 187.597 275.891 196.891 280.793 213.256C287.217 234.704 295.857 263.85 306.841 287.633C312.369 299.603 317.656 308.318 322.265 313.586C322.672 314.051 323.049 314.461 323.394 314.822C323.798 314.365 324.249 313.829 324.744 313.201C329.398 307.301 334.536 297.518 339.736 284.022C350.129 257.047 347.877 261.582 356.446 237.525Z" fill="url(#paint1_linear_2121_667)"/>
<path d="M191.119 373.766C214.497 373.766 234.175 360.414 249.59 334.537C249.59 334.537 231.35 342.294 204.603 323.291C191.119 313.711 180.15 294.751 174.622 282.781C163.638 258.998 154.998 229.852 148.574 208.404C143.672 192.039 126.432 182.745 110.066 187.647C93.7004 192.549 84.407 209.789 89.3087 226.155C95.42 246.559 105.279 280.189 118.456 308.72C125.007 322.906 133.216 337.733 143.48 349.467C153.398 360.804 169.296 373.766 191.119 373.766Z" fill="url(#paint2_linear_2121_667)"/>
<path d="M258.428 167.538C269.118 167.538 279.522 171.595 287.286 179.824C294.152 187.102 296.941 195.504 298.197 201.321C300.638 212.62 299.472 224.703 298.244 233.014C297.075 240.932 295.331 248.574 293.794 254.535C297.704 265.866 302.049 277.26 306.84 287.634C312.368 299.604 323.338 318.564 336.821 328.144C363.507 347.103 381.724 339.425 381.808 339.39C366.393 365.267 346.715 378.619 323.338 378.619C301.514 378.619 285.616 365.657 275.698 354.319C265.434 342.586 257.226 327.759 250.674 313.572C250.352 312.875 250.034 312.173 249.716 311.47C239.146 290.78 229.919 268.645 224.653 249.391C221.056 236.235 218.225 221.625 218.982 208.863C219.349 202.686 220.726 193.256 226.537 184.549C233.641 173.904 245.294 167.538 258.428 167.538Z" fill="url(#paint3_linear_2121_667)"/>
<path d="M438.662 169.091C438.074 188.59 423.061 201.305 403.562 200.717C384.063 200.129 368.654 186.461 369.242 166.962C369.83 147.463 384.843 133.44 404.342 134.027C423.841 134.615 439.25 149.592 438.662 169.091Z" fill="url(#paint4_linear_2121_667)"/>
<defs>
<linearGradient id="paint0_linear_2121_667" x1="190.209" y1="171.782" x2="190.209" y2="373.766" gradientUnits="userSpaceOnUse">
<stop offset="0.216346" stop-color="#E0E0E0"/>
<stop offset="1" stop-color="#4EA8BB"/>
</linearGradient>
<linearGradient id="paint1_linear_2121_667" x1="322.428" y1="176.634" x2="322.428" y2="378.618" gradientUnits="userSpaceOnUse">
<stop stop-color="#FFCBA0"/>
<stop offset="1" stop-color="#FF9C50"/>
</linearGradient>
<linearGradient id="paint2_linear_2121_667" x1="168.795" y1="186.338" x2="168.795" y2="373.766" gradientUnits="userSpaceOnUse">
<stop stop-color="#4EA8BB"/>
<stop offset="1" stop-color="#1996B0"/>
</linearGradient>
<linearGradient id="paint3_linear_2121_667" x1="298.585" y1="169.964" x2="298.585" y2="378.619" gradientUnits="userSpaceOnUse">
<stop stop-color="#FFB072"/>
<stop offset="1" stop-color="#F38F40"/>
</linearGradient>
<linearGradient id="paint4_linear_2121_667" x1="405.571" y1="134.028" x2="403.561" y2="200.717" gradientUnits="userSpaceOnUse">
<stop stop-color="#1FAFCD"/>
<stop offset="1" stop-color="#4EA8BB"/>
</linearGradient>
</defs>
</svg>
