<svg width="369" height="263" viewBox="0 0 369 263" fill="none" xmlns="http://www.w3.org/2000/svg">
<path d="M152.506 70.0676C156.734 53.515 173.58 43.5236 190.133 47.7513C206.685 51.9791 216.677 68.8253 212.449 85.3779C206.84 107.338 198.346 145.009 186.247 176.413C180.201 192.106 172.411 208.594 162.098 221.667C151.968 234.508 135.497 248.766 112.119 248.766C90.2958 248.766 74.3977 235.804 64.48 224.467C54.2162 212.733 46.0074 197.906 39.4557 183.72C26.279 155.189 16.42 121.559 10.3087 101.155C5.40702 84.7893 14.7004 67.5488 31.066 62.647C47.4317 57.7453 64.6722 67.0386 69.574 83.4043C75.9978 104.851 84.6383 133.998 95.6219 157.781C101.15 169.751 106.437 178.465 111.046 183.734C111.453 184.199 111.83 184.608 112.175 184.969C112.58 184.512 113.03 183.976 113.525 183.349C118.18 177.449 123.317 167.666 128.517 154.17C138.91 127.195 146.186 94.8108 152.506 70.0676Z" fill="url(#paint0_linear_2150_1081)"/>
<path d="M277.446 112.525C283.148 96.5178 298.52 85.981 315.073 90.2087C331.625 94.4365 341.617 111.283 337.389 127.835C331.78 149.795 330.565 149.861 318.466 181.265C312.419 196.958 304.63 213.446 294.317 226.52C284.187 239.36 267.715 253.618 244.338 253.618C222.515 253.618 206.616 240.656 196.699 229.319C186.435 217.585 178.226 202.758 171.674 188.572C158.498 160.041 148.639 126.411 142.527 106.007C137.626 89.6415 146.919 72.401 163.285 67.4992C179.65 62.5974 196.891 71.8908 201.793 88.2565C208.217 109.704 216.857 138.85 227.841 162.633C233.369 174.603 238.656 183.318 243.265 188.586C243.672 189.051 244.049 189.461 244.394 189.822C244.798 189.365 245.249 188.829 245.744 188.201C250.398 182.301 255.536 172.518 260.736 159.022C271.129 132.047 268.877 136.582 277.446 112.525Z" fill="url(#paint1_linear_2150_1081)"/>
<path d="M112.119 248.766C135.497 248.766 155.175 235.414 170.59 209.537C170.59 209.537 152.35 217.294 125.603 198.291C112.119 188.711 101.15 169.751 95.6219 157.781C84.6383 133.998 75.9978 104.852 69.574 83.4044C64.6722 67.0387 47.4317 57.7454 31.066 62.6471C14.7004 67.5489 5.40702 84.7894 10.3087 101.155C16.42 121.559 26.279 155.189 39.4557 183.72C46.0074 197.906 54.2162 212.733 64.48 224.467C74.3977 235.804 90.2958 248.766 112.119 248.766Z" fill="url(#paint2_linear_2150_1081)"/>
<path d="M179.428 42.5381C190.118 42.5381 200.523 46.5948 208.287 54.8242C215.153 62.1015 217.941 70.5039 219.197 76.3213C221.638 87.6199 220.473 99.7027 219.245 108.014C218.076 115.931 216.332 123.573 214.795 129.534C218.705 140.865 223.05 152.26 227.841 162.634C233.369 174.604 244.338 193.564 257.821 203.144C284.568 222.147 302.809 214.39 302.809 214.39C287.394 240.267 267.715 253.619 244.338 253.619C222.515 253.619 206.617 240.657 196.699 229.319C186.435 217.586 178.227 202.759 171.675 188.572C171.354 187.878 171.038 187.18 170.722 186.48C160.15 165.788 150.921 143.649 145.654 124.391C142.057 111.235 139.226 96.6252 139.983 83.8633C140.35 77.6865 141.727 68.256 147.537 59.5488C154.641 48.904 166.295 42.5383 179.428 42.5381Z" fill="url(#paint3_linear_2150_1081)"/>
<path d="M359.662 44.0907C359.074 63.5896 344.061 76.3047 324.562 75.7168C305.063 75.1289 289.654 61.4606 290.242 41.9617C290.83 22.4629 305.843 8.43951 325.342 9.02741C344.841 9.61532 360.25 24.5918 359.662 44.0907Z" fill="url(#paint4_linear_2150_1081)"/>
<defs>
<linearGradient id="paint0_linear_2150_1081" x1="111.209" y1="46.7817" x2="111.209" y2="248.766" gradientUnits="userSpaceOnUse">
<stop offset="0.216346" stop-color="#E0E0E0"/>
<stop offset="1" stop-color="#4EA8BB"/>
</linearGradient>
<linearGradient id="paint1_linear_2150_1081" x1="243.428" y1="51.6342" x2="243.428" y2="253.618" gradientUnits="userSpaceOnUse">
<stop stop-color="#FFCBA0"/>
<stop offset="1" stop-color="#FF9C50"/>
</linearGradient>
<linearGradient id="paint2_linear_2150_1081" x1="89.7948" y1="61.3384" x2="89.7948" y2="248.766" gradientUnits="userSpaceOnUse">
<stop stop-color="#4EA8BB"/>
<stop offset="1" stop-color="#1996B0"/>
</linearGradient>
<linearGradient id="paint3_linear_2150_1081" x1="219.585" y1="44.9642" x2="219.585" y2="253.619" gradientUnits="userSpaceOnUse">
<stop stop-color="#FFB072"/>
<stop offset="1" stop-color="#F38F40"/>
</linearGradient>
<linearGradient id="paint4_linear_2150_1081" x1="326.571" y1="9.02842" x2="324.561" y2="75.7166" gradientUnits="userSpaceOnUse">
<stop stop-color="#1FAFCD"/>
<stop offset="1" stop-color="#4EA8BB"/>
</linearGradient>
</defs>
</svg>
