<svg width="440" height="440" viewBox="0 0 440 440" fill="none" xmlns="http://www.w3.org/2000/svg">
<path d="M312.867 166.164C312.58 160.526 317.592 155.779 323.002 157.394C370.911 171.7 405.002 208.437 405.002 251.5C405.002 273.032 396.477 292.981 381.965 309.337C379.877 311.69 379.172 315.003 380.346 317.922C386.155 332.357 392.989 347.54 399.576 360.239C403.754 368.293 394.694 376.195 386.08 373.346C365.879 366.664 343.561 358.248 324.426 347.704C322.533 346.661 320.31 346.395 318.22 346.944C305.729 350.224 292.377 352 278.502 352C231.344 352 190.213 331.499 168.459 301.103C165.664 297.197 168.697 291.959 173.5 291.959C249.873 291.959 313.002 242.097 313.002 171.5C313.002 169.708 312.956 167.929 312.867 166.164Z" fill="#F8CB9E"/>
<path d="M166.5 72C236.364 72 293 116.995 293 172.5C293 228.005 236.364 273 166.5 273C152.625 273 139.273 271.224 126.781 267.944C124.691 267.396 122.468 267.661 120.575 268.704C101.44 279.248 79.1223 287.664 58.9219 294.346C50.3083 297.195 41.2483 289.293 45.4258 281.239C52.0128 268.54 58.8455 253.357 64.6543 238.922C65.8287 236.003 65.1241 232.69 63.0361 230.337C48.5239 213.981 40 194.032 40 172.5C40 116.995 96.636 72 166.5 72ZM110 186C105.582 186 102 189.582 102 194C102 198.418 105.582 202 110 202H191C195.418 202 199 198.418 199 194C199 189.582 195.418 186 191 186H110ZM110 148C105.582 148 102 151.582 102 156C102 160.418 105.582 164 110 164H230C234.418 164 238 160.418 238 156C238 151.582 234.418 148 230 148H110Z" fill="#5DA7AE"/>
</svg>
