<svg width="932" height="216" viewBox="0 0 932 216" fill="none" xmlns="http://www.w3.org/2000/svg">
<path d="M133.125 67.007C135.987 55.8042 147.388 49.0419 158.591 51.9033C169.794 54.7646 176.556 66.1662 173.695 77.3691C169.899 92.2317 164.15 117.728 155.961 138.982C151.869 149.603 146.597 160.762 139.617 169.61C132.761 178.301 121.613 187.951 105.791 187.951C91.0212 187.951 80.2614 179.178 73.549 171.505C66.6025 163.564 61.0467 153.528 56.6125 143.927C47.6945 124.617 41.0219 101.856 36.8858 88.047C33.5683 76.9707 39.858 65.3023 50.9344 61.9847C62.0107 58.6672 73.6791 64.957 76.9966 76.0333C81.3443 90.5488 87.1922 110.276 94.6259 126.372C98.3675 134.473 101.946 140.371 105.065 143.937C105.34 144.252 105.596 144.529 105.829 144.773C106.103 144.464 106.408 144.101 106.743 143.676C109.893 139.683 113.37 133.062 116.889 123.928C123.923 105.671 128.848 83.7533 133.125 67.007Z" fill="url(#paint0_linear_2121_697)"/>
<path d="M217.684 95.7422C221.543 84.9085 231.947 77.7771 243.149 80.6385C254.352 83.4999 261.114 94.9014 258.253 106.104C254.457 120.967 253.634 121.011 245.446 142.266C241.353 152.887 236.082 164.046 229.102 172.894C222.246 181.585 211.098 191.234 195.276 191.234C180.506 191.234 169.746 182.462 163.033 174.789C156.087 166.847 150.531 156.812 146.097 147.211C137.179 127.901 130.506 105.14 126.37 91.3309C123.053 80.2545 129.342 68.5861 140.419 65.2686C151.495 61.9511 163.163 68.2408 166.481 79.3172C170.829 93.8327 176.677 113.559 184.11 129.655C187.852 137.757 191.43 143.655 194.549 147.221C194.825 147.535 195.08 147.812 195.313 148.057C195.587 147.747 195.892 147.385 196.227 146.96C199.377 142.967 202.855 136.346 206.374 127.212C213.408 108.955 211.884 112.024 217.684 95.7422Z" fill="url(#paint1_linear_2121_697)"/>
<path d="M105.791 187.95C121.613 187.95 134.932 178.914 145.364 161.4C145.364 161.4 133.02 166.65 114.917 153.789C105.791 147.305 98.3675 134.473 94.6259 126.371C87.1922 110.275 81.3443 90.5485 76.9966 76.033C73.6791 64.9567 62.0107 58.6669 50.9344 61.9844C39.858 65.3019 33.5683 76.9704 36.8858 88.0467C41.0219 101.856 47.6945 124.617 56.6125 143.927C61.0467 153.528 66.6025 163.563 73.549 171.504C80.2614 179.178 91.0212 187.95 105.791 187.95Z" fill="url(#paint2_linear_2121_697)"/>
<path d="M151.35 48.375C158.585 48.375 165.627 51.1207 170.882 56.6904C175.529 61.6159 177.416 67.303 178.267 71.2402C179.918 78.8869 179.129 87.0637 178.298 92.6885C177.506 98.0523 176.324 103.23 175.283 107.266C177.928 114.931 180.868 122.639 184.109 129.656C187.851 137.758 195.275 150.591 204.4 157.074C222.503 169.936 234.848 164.685 234.848 164.685C224.415 182.199 211.096 191.235 195.274 191.235C180.505 191.235 169.745 182.463 163.032 174.79C156.086 166.849 150.53 156.813 146.096 147.212C145.859 146.7 145.626 146.185 145.393 145.669C138.265 131.7 132.045 116.768 128.491 103.773C126.056 94.8695 124.14 84.9811 124.653 76.3438C124.902 72.1632 125.834 65.7807 129.767 59.8877C134.574 52.6834 142.461 48.3752 151.35 48.375Z" fill="url(#paint3_linear_2121_697)"/>
<path d="M273.33 49.4258C272.932 62.6227 262.771 71.2283 249.574 70.8304C236.377 70.4326 225.948 61.1818 226.346 47.9849C226.744 34.788 236.905 25.297 250.102 25.6949C263.299 26.0928 273.728 36.2289 273.33 49.4258Z" fill="url(#paint4_linear_2121_697)"/>
<path d="M857.624 87.0547C864.824 87.0547 870.661 92.8918 870.661 100.092V154.021C870.661 161.222 864.824 167.059 857.624 167.059C850.423 167.059 844.586 161.222 844.586 154.021V100.092C844.586 92.8918 850.423 87.0547 857.624 87.0547Z" fill="#4EA8BB"/>
<path d="M813.241 78.2099C808.667 78.2099 804.905 76.8884 801.957 74.2453C799.111 71.5005 797.688 68.1458 797.688 64.1812C797.688 60.1149 799.111 56.7602 801.957 54.1171C804.905 51.3724 808.667 50 813.241 50C817.714 50 821.374 51.3724 824.22 54.1171C827.168 56.7602 828.642 60.1149 828.642 64.1812C828.642 68.1458 827.168 71.5005 824.22 74.2453C821.374 76.8884 817.714 78.2099 813.241 78.2099ZM813.165 87.0541C820.365 87.0541 826.202 92.8912 826.202 100.092V154.021C826.202 161.221 820.365 167.058 813.165 167.058C805.964 167.058 800.127 161.221 800.127 154.021V100.092C800.127 92.8912 805.964 87.0541 813.165 87.0541Z" fill="#4EA8BB"/>
<path d="M768.186 54.2188C775.386 54.2188 781.224 60.0559 781.224 67.2563V154.021C781.224 161.221 775.386 167.058 768.186 167.058C760.986 167.058 755.148 161.221 755.148 154.021V67.2563C755.148 60.0559 760.986 54.2188 768.186 54.2188Z" fill="#4EA8BB"/>
<path d="M696.799 168.278C688.463 168.278 680.94 166.499 674.231 162.941C667.623 159.383 662.388 154.301 658.525 147.693C654.763 141.085 652.883 133.359 652.883 124.515C652.883 115.772 654.814 108.097 658.677 101.49C662.54 94.7802 667.826 89.6465 674.536 86.0885C681.245 82.5305 688.768 80.7515 697.104 80.7515C705.44 80.7515 712.962 82.5305 719.672 86.0885C726.381 89.6465 731.667 94.7802 735.53 101.49C739.393 108.097 741.325 115.772 741.325 124.515C741.325 133.257 739.342 140.983 735.378 147.693C731.515 154.301 726.178 159.383 719.367 162.941C712.657 166.499 705.135 168.278 696.799 168.278ZM696.799 145.711C701.78 145.711 705.999 143.881 709.455 140.221C713.013 136.561 714.792 131.326 714.792 124.515C714.792 117.704 713.064 112.469 709.608 108.809C706.253 105.149 702.085 103.319 697.104 103.319C692.021 103.319 687.802 105.149 684.447 108.809C681.093 112.367 679.415 117.602 679.415 124.515C679.415 131.326 681.042 136.561 684.295 140.221C687.65 143.881 691.818 145.711 696.799 145.711Z" fill="#4EA8BB"/>
<path d="M607.615 81.0563C617.374 81.0563 625.202 84.3093 631.098 90.8154C636.994 97.2198 639.942 106.064 639.942 117.348V154.097C639.942 161.255 634.139 167.058 626.981 167.058C619.823 167.058 614.02 161.255 614.02 154.097V120.855C614.02 115.162 612.546 110.74 609.598 107.589C606.649 104.437 602.685 102.862 597.704 102.862C592.722 102.862 588.758 104.437 585.81 107.589C582.862 110.74 581.388 115.162 581.388 120.855V154.021C581.388 161.221 575.551 167.058 568.35 167.058C561.15 167.058 555.312 161.221 555.312 154.021V67.2563C555.312 60.0559 561.15 54.2188 568.35 54.2188C575.551 54.2188 581.388 60.0559 581.388 67.2563V73.8132V93.4077C584.031 89.6463 587.64 86.6474 592.214 84.411C596.789 82.1745 601.922 81.0563 607.615 81.0563Z" fill="#4EA8BB"/>
<path d="M450.195 124.362C450.195 115.62 451.822 107.945 455.075 101.337C458.43 94.7294 462.953 89.6465 468.646 86.0885C474.339 82.5305 480.693 80.7515 487.707 80.7515C493.705 80.7515 498.94 81.9714 503.413 84.4111C507.988 86.8509 511.495 90.0531 513.934 94.0177C513.934 87.3647 519.328 81.9714 525.981 81.9714H526.972C534.172 81.9714 540.01 87.8085 540.01 95.0089V154.021C540.01 161.221 534.172 167.059 526.972 167.059H525.981C519.328 167.059 513.934 161.665 513.934 155.012C511.393 158.977 507.835 162.179 503.26 164.619C498.788 167.059 493.552 168.278 487.554 168.278C480.642 168.278 474.339 166.499 468.646 162.941C462.953 159.282 458.43 154.148 455.075 147.54C451.822 140.831 450.195 133.105 450.195 124.362ZM513.934 124.515C513.934 118.009 512.105 112.875 508.445 109.114C504.887 105.353 500.516 103.472 495.331 103.472C490.147 103.472 485.725 105.353 482.065 109.114C478.507 112.774 476.728 117.856 476.728 124.362C476.728 130.869 478.507 136.053 482.065 139.916C485.725 143.677 490.147 145.558 495.331 145.558C500.516 145.558 504.887 143.677 508.445 139.916C512.105 136.155 513.934 131.021 513.934 124.515Z" fill="#4EA8BB"/>
<path d="M433.77 60.0132C442.458 60.0132 448.803 68.224 446.611 76.6316L427.063 151.62C424.693 160.713 416.481 167.058 407.084 167.058C397.849 167.058 389.736 160.925 387.219 152.039L374.395 106.776L361.065 152.206C358.482 161.01 350.404 167.058 341.228 167.058C331.768 167.058 323.514 160.636 321.189 151.466L302.184 76.513C300.061 68.1431 306.387 60.0132 315.022 60.0132C321.347 60.0132 326.789 64.485 328.015 70.6896L341.306 137.934L355.891 93.8667C358.563 85.7949 366.108 80.3447 374.61 80.3447C383.2 80.3447 390.801 85.9051 393.402 94.0913L407.332 137.934L420.756 70.6863C421.994 64.4809 427.442 60.0132 433.77 60.0132Z" fill="#4EA8BB"/>
<path d="M846.418 74.2453C849.366 76.8884 853.127 78.2099 857.702 78.2099C862.175 78.2099 865.835 76.8884 868.681 74.2453C871.629 71.5005 873.103 68.1458 873.103 64.1812C873.103 60.1149 871.629 56.7602 868.681 54.1171C865.835 51.3724 862.175 50 857.702 50C853.127 50 849.366 51.3724 846.418 54.1171C843.572 56.7602 842.148 60.1149 842.148 64.1812C842.148 68.1458 843.572 71.5005 846.418 74.2453Z" fill="#FF9441"/>
<defs>
<linearGradient id="paint0_linear_2121_697" x1="105.175" y1="51.2471" x2="105.175" y2="187.951" gradientUnits="userSpaceOnUse">
<stop offset="0.216346" stop-color="#E0E0E0"/>
<stop offset="1" stop-color="#4EA8BB"/>
</linearGradient>
<linearGradient id="paint1_linear_2121_697" x1="194.66" y1="54.5311" x2="194.66" y2="191.235" gradientUnits="userSpaceOnUse">
<stop stop-color="#FFCBA0"/>
<stop offset="1" stop-color="#FF9C50"/>
</linearGradient>
<linearGradient id="paint2_linear_2121_697" x1="90.6821" y1="61.0986" x2="90.6821" y2="187.95" gradientUnits="userSpaceOnUse">
<stop stop-color="#4EA8BB"/>
<stop offset="1" stop-color="#1996B0"/>
</linearGradient>
<linearGradient id="paint3_linear_2121_697" x1="178.526" y1="50.017" x2="178.526" y2="191.235" gradientUnits="userSpaceOnUse">
<stop stop-color="#FFB072"/>
<stop offset="1" stop-color="#F38F40"/>
</linearGradient>
<linearGradient id="paint4_linear_2121_697" x1="250.934" y1="25.6956" x2="249.573" y2="70.8303" gradientUnits="userSpaceOnUse">
<stop stop-color="#1FAFCD"/>
<stop offset="1" stop-color="#4EA8BB"/>
</linearGradient>
</defs>
</svg>
