<svg width="2116" height="540" viewBox="0 0 2116 540" fill="none" xmlns="http://www.w3.org/2000/svg">
<mask id="mask0_2160_1397" style="mask-type:alpha" maskUnits="userSpaceOnUse" x="0" y="0" width="2116" height="540">
<rect width="2116" height="540" fill="#D9D9D9"/>
</mask>
<g mask="url(#mask0_2160_1397)">
<path d="M0 0H2116V540H0V0Z" fill="#FEFBF8"/>
<ellipse cx="1337.5" cy="257" rx="67.5" ry="67" fill="#FBBF81"/>
<path d="M2014.8 548.11C2014.8 704.439 1762.13 831.168 1438.11 831.168C1114.1 831.168 851.43 704.439 851.43 548.11C851.43 391.782 1114.1 265.052 1438.11 265.052C1762.13 265.052 2014.8 391.782 2014.8 548.11Z" fill="#DBECEC"/>
<path d="M925.813 477.924C925.813 650.895 751.692 791.116 536.904 791.116C322.115 791.116 49.5053 727.983 49.5 546.5C49.4949 372.076 322.115 164.732 536.904 164.732C751.692 164.732 925.813 304.953 925.813 477.924Z" fill="#F4E2CA"/>
<path d="M860.547 402.152C671.356 406.055 579.224 496.898 551 543H1749.7H2078C2036.55 485.556 1901.69 429.474 1776.99 429.474C1640.89 429.474 1576.77 494.921 1405.95 494.921C1215.07 494.921 1079.3 397.64 860.547 402.152Z" fill="#F8CB9E"/>
<path d="M835.714 347.787L895.235 291.602C896.781 290.143 899.198 290.148 900.738 291.613L957.088 345.233C957.861 345.968 958.308 346.981 958.33 348.047L959.916 424.058C959.962 426.276 958.195 428.107 955.977 428.141L837.136 429.937C834.874 429.972 833.034 428.126 833.076 425.864L834.461 350.622C834.48 349.547 834.932 348.525 835.714 347.787Z" fill="#EB9660"/>
<path d="M725.02 362.411C725.02 412.877 709.076 420.67 689.408 420.67C669.741 420.67 653.797 408.859 653.797 362.411C653.797 328.016 669.741 296.116 689.408 296.116C709.076 296.116 725.02 328.016 725.02 362.411Z" fill="#56A6AD"/>
<path d="M683.159 419.84C683.168 418.742 684.061 417.857 685.159 417.857H693.699C694.784 417.857 695.672 418.722 695.699 419.807L696.806 464.021C696.834 465.145 695.931 466.071 694.806 466.071H684.79C683.679 466.071 682.781 465.166 682.79 464.055L683.159 419.84Z" fill="#56A6AD"/>
<path d="M776.932 421.266C776.932 452.959 762.379 453.214 750.978 453.214C739.576 453.214 725.023 450.755 725.023 421.266C725.023 402.404 736.643 384.911 750.978 384.911C765.312 384.911 776.932 402.404 776.932 421.266Z" fill="#56A6AD"/>
<path d="M746.458 433.18C746.488 432.097 747.374 431.235 748.457 431.235H754.217C755.3 431.235 756.186 432.097 756.216 433.18L757.313 472.985C757.344 474.111 756.44 475.04 755.313 475.04H747.361C746.234 475.04 745.33 474.111 745.361 472.985L746.458 433.18Z" fill="#56A6AD"/>
<path d="M1236.77 453.337C1220.82 481.862 1204.2 495.759 1201.66 494.509C1199.12 493.258 1214.46 464.872 1222.84 447.911C1231.21 430.949 1235.87 431.91 1239.1 434.288C1243.96 437.866 1240.91 445.934 1236.77 453.337Z" fill="#55A3A5"/>
<path d="M1161.5 468.985C1172.77 482.043 1200.42 497.672 1203.67 495.602C1207.82 492.956 1187.67 475.412 1176.37 462.376C1165.07 449.341 1159.07 450.712 1156.45 453.334C1154.25 455.535 1155.79 462.376 1161.5 468.985Z" fill="#55A3A5"/>
<path d="M1175.15 445.901C1184.89 462.55 1197.84 498.867 1204.07 495.803C1208.1 493.817 1197.28 458.815 1188.74 441.505C1180.19 424.195 1175.15 421.224 1171.28 423.516C1168.46 425.187 1168.37 434.323 1175.15 445.901Z" fill="#EC955F"/>
<path d="M1238.12 483.87C1227.41 491.405 1204.15 497.562 1202.8 495.634C1201.44 493.705 1219.34 481.738 1230.07 474.227C1240.81 466.717 1243.82 468.772 1245.56 471.615C1247.03 474.002 1242.93 480.492 1238.12 483.87Z" fill="#EC955F"/>
<path d="M1215.71 429.884C1216.41 454.52 1208.17 494.297 1204.67 494.397C1201.16 494.497 1202.97 462.891 1199.37 426.419C1197.68 409.339 1201.81 403.365 1205.31 403.265C1208.82 403.165 1215.01 405.247 1215.71 429.884Z" fill="#EC955F"/>
<path d="M1547.21 305.813C1547.24 304.69 1548.18 303.804 1549.3 303.851L1555.73 304.123C1556.78 304.167 1557.62 305.019 1557.65 306.071L1558.64 345.781C1558.66 346.905 1557.76 347.831 1556.64 347.831H1548.49C1547.37 347.831 1546.47 346.913 1546.49 345.795L1547.21 305.813Z" fill="#56A5AC"/>
<path d="M1549.81 201.56C1551.34 199.003 1555.02 198.972 1556.6 201.492L1577.72 235.049C1579.65 238.123 1577.77 242.154 1574.16 242.589C1568.52 243.27 1560.84 244.11 1554.97 244.429C1548.52 244.779 1539.99 244.73 1533.84 244.623C1530.17 244.559 1527.89 240.661 1529.61 237.41C1532.29 232.36 1535.92 225.564 1538.8 220.432C1542.11 214.546 1546.72 206.747 1549.81 201.56Z" fill="#56A5AC"/>
<path d="M1551.2 232.13C1552.72 229.828 1556.06 229.724 1557.7 231.94C1561.5 237.056 1567.71 245.498 1572.01 251.846C1575.71 257.287 1580.33 264.612 1583.65 269.944C1585.63 273.129 1583.49 277.239 1579.75 277.454C1572.59 277.866 1562.15 278.389 1554.32 278.46C1546.83 278.528 1536.92 278.226 1529.88 277.959C1526.01 277.813 1523.82 273.495 1525.96 270.263L1551.2 232.13Z" fill="#56A5AC"/>
<path d="M1550.44 263.874C1552.13 261.788 1555.35 261.963 1556.83 264.204L1586.06 308.453C1587.72 310.962 1586.13 314.321 1583.13 314.585C1575.21 315.283 1561.75 316.339 1551.91 316.417C1542.3 316.494 1529.12 315.695 1521.39 315.153C1518.43 314.945 1516.77 311.713 1518.32 309.189C1522.05 303.117 1528.21 293.269 1533.13 286.313C1538.3 278.994 1546.03 269.314 1550.44 263.874Z" fill="#56A5AC"/>
<path d="M1477.25 313.672C1477.26 312.547 1478.21 311.659 1479.33 311.709L1485.02 311.959C1486.08 312.006 1486.91 312.858 1486.94 313.91L1487.85 352.327C1487.88 353.45 1486.97 354.375 1485.85 354.375H1478.57C1477.46 354.375 1476.55 353.458 1476.57 352.34L1477.25 313.672Z" fill="#2F7D81"/>
<path d="M1484.69 239.715C1483.18 237.102 1479.43 237.068 1477.86 239.644L1462.37 264.934C1460.86 267.389 1462.37 270.568 1465.22 270.922C1469.57 271.459 1475.43 272.117 1479.93 272.367C1484.86 272.642 1491.36 272.607 1496.1 272.524C1499.02 272.473 1500.84 269.392 1499.5 266.794C1497.44 262.79 1494.63 257.403 1492.41 253.336C1490.12 249.153 1487.03 243.752 1484.69 239.715Z" fill="#2F7D81"/>
<path d="M1477.1 263.757C1478.62 261.4 1482.02 261.299 1483.66 263.573C1486.61 267.667 1490.87 273.651 1493.9 278.25C1497.08 283.059 1501.15 289.724 1503.72 293.989C1504.87 295.901 1503.59 298.335 1501.37 298.47C1495.88 298.805 1486.86 299.295 1480.24 299.357C1474.51 299.411 1466.94 299.176 1461.51 298.966C1458.44 298.846 1456.69 295.437 1458.35 292.851L1477.1 263.757Z" fill="#2F7D81"/>
<path d="M1479.5 288.819C1481.18 286.673 1484.47 286.847 1485.94 289.142L1507.11 322.051C1508.72 324.559 1507.12 327.871 1504.15 328.132C1497.94 328.679 1488.49 329.403 1481.45 329.461C1474.57 329.518 1465.32 328.976 1459.24 328.554C1456.32 328.35 1454.66 325.16 1456.17 322.642C1459.07 317.799 1463.42 310.704 1466.94 305.585C1470.64 300.218 1476.02 293.249 1479.5 288.819Z" fill="#2F7D81"/>
</g>
<path d="M977 178.072H989.312C991.472 178.072 992.456 179.08 992.456 181C992.456 181.072 992.456 181.144 992.456 181.216C992.36 185.632 991.112 189.184 988.88 191.824C986.888 194.176 984.08 195.808 980.576 196.696C980.432 196.72 980.288 196.744 980.144 196.744C979.616 196.744 979.256 196.456 979.112 195.976C979.088 195.856 979.064 195.736 979.064 195.616C979.064 195.16 979.352 194.824 979.88 194.704C983.264 193.84 985.88 192.256 987.584 190.048C989.312 187.888 990.2 184.936 990.296 181.192C990.296 181.168 990.296 181.144 990.296 181.12C990.296 180.328 989.96 180.04 989.048 180.04H977.672C976.76 180.04 976.496 180.232 976.496 181.048V185.56C976.496 186.136 976.04 186.52 975.44 186.52C974.816 186.52 974.36 186.136 974.36 185.56V180.592C974.36 178.888 975.32 178.072 977 178.072ZM1016.36 188.104H998.096C997.496 188.104 997.16 187.72 997.16 187.072C997.16 186.448 997.496 185.992 998.12 185.992H1016.34C1016.96 185.992 1017.3 186.448 1017.3 187.072C1017.3 187.72 1016.96 188.104 1016.36 188.104ZM1032.54 182.128V196.36C1032.54 196.984 1032.03 197.272 1031.46 197.272C1030.88 197.272 1030.47 196.984 1030.47 196.36V182.128H1022.43C1021.93 182.128 1021.59 181.72 1021.59 181.168C1021.59 180.64 1021.93 180.184 1022.43 180.184H1030.47V177.376C1030.47 176.752 1030.88 176.464 1031.46 176.464C1032.03 176.464 1032.54 176.752 1032.54 177.376V180.184H1041.01C1041.51 180.184 1041.85 180.64 1041.85 181.168C1041.85 181.72 1041.51 182.128 1041.01 182.128H1032.54ZM1024.81 185.392C1024.9 184.84 1025.29 184.576 1025.74 184.576C1025.86 184.576 1025.96 184.6 1026.08 184.624C1026.56 184.696 1026.87 185.056 1026.87 185.584C1026.87 185.656 1026.87 185.752 1026.85 185.848C1026.18 189.112 1024.88 192.304 1023.27 194.584C1023.03 194.944 1022.67 195.112 1022.34 195.112C1022.12 195.112 1021.93 195.064 1021.76 194.944C1021.42 194.752 1021.26 194.44 1021.26 194.104C1021.26 193.888 1021.33 193.648 1021.47 193.456C1023.03 191.344 1024.26 188.296 1024.81 185.392ZM1037.02 184.624C1037.12 184.6 1037.22 184.6 1037.31 184.6C1037.77 184.6 1038.18 184.84 1038.3 185.416C1038.87 188.344 1040.1 191.296 1041.82 193.432C1041.94 193.624 1042.02 193.864 1042.02 194.08C1042.02 194.44 1041.85 194.752 1041.58 194.944C1041.37 195.064 1041.15 195.136 1040.94 195.136C1040.6 195.136 1040.26 194.968 1040 194.608C1038.37 192.424 1036.9 189.088 1036.26 185.848C1036.23 185.752 1036.23 185.656 1036.23 185.56C1036.23 185.056 1036.57 184.696 1037.02 184.624ZM1049.84 177.952V188.488C1049.84 189.112 1049.41 189.472 1048.76 189.472C1048.14 189.472 1047.68 189.136 1047.68 188.512V177.976C1047.68 177.352 1048.14 176.992 1048.76 176.992C1049.41 176.992 1049.84 177.328 1049.84 177.952ZM1059.58 185.488V178C1059.58 177.376 1059.99 176.992 1060.62 176.992C1061.26 176.992 1061.74 177.328 1061.74 177.952V185.776C1061.74 189.376 1060.83 191.896 1058.79 193.696C1056.9 195.352 1054.09 196.456 1051.42 196.768C1051.38 196.768 1051.3 196.768 1051.26 196.768C1050.68 196.768 1050.3 196.432 1050.18 195.928C1050.15 195.832 1050.15 195.76 1050.15 195.664C1050.15 195.184 1050.46 194.8 1051.02 194.728C1053.44 194.416 1055.84 193.456 1057.35 192.088C1058.91 190.672 1059.58 188.608 1059.58 185.488ZM1080.48 195.25H1089.83C1090.28 195.25 1090.56 195.625 1090.56 196.175C1090.56 196.7 1090.28 197.075 1089.83 197.075H1068.63C1068.18 197.075 1067.93 196.7 1067.93 196.175C1067.93 195.625 1068.18 195.25 1068.63 195.25H1078.46V188.925H1071.83C1071.38 188.925 1071.08 188.55 1071.08 188.025C1071.08 187.5 1071.38 187.125 1071.83 187.125H1078.46V181.9H1072.61C1071.78 183.6 1070.81 185.2 1069.71 186.575C1069.48 186.825 1069.23 186.95 1068.98 186.95C1068.73 186.95 1068.46 186.85 1068.26 186.65C1068.03 186.475 1067.91 186.225 1067.91 185.975C1067.91 185.75 1068.01 185.5 1068.18 185.275C1070.11 182.95 1071.73 179.775 1072.56 176.6C1072.68 176.175 1072.98 175.975 1073.38 175.975C1073.48 175.975 1073.61 176 1073.73 176.025C1074.21 176.15 1074.51 176.475 1074.51 176.85C1074.51 176.925 1074.51 177.025 1074.46 177.1C1074.18 178.075 1073.81 179.1 1073.38 180.1H1078.46V175.7C1078.46 175.225 1078.88 174.925 1079.46 174.925C1080.06 174.925 1080.48 175.225 1080.48 175.7V180.1H1088.91C1089.36 180.1 1089.61 180.45 1089.61 181C1089.61 181.525 1089.36 181.9 1088.91 181.9H1080.48V187.125H1087.58C1088.03 187.125 1088.31 187.5 1088.31 188.025C1088.31 188.55 1088.03 188.925 1087.58 188.925H1080.48V195.25ZM1109.26 188.25H1113.41C1114.88 188.25 1115.53 188.8 1115.53 190.225V195.275C1115.53 196.725 1114.88 197.3 1113.41 197.3H1103.73C1102.26 197.3 1101.58 196.725 1101.58 195.275V190.225C1101.58 188.8 1102.26 188.25 1103.73 188.25H1107.41V184.15H1100.71C1100.23 184.15 1099.93 183.825 1099.93 183.25C1099.93 182.7 1100.23 182.35 1100.71 182.35H1107.41V178.475C1105.51 178.75 1103.63 178.925 1101.88 179.05C1101.86 179.05 1101.86 179.05 1101.83 179.05C1101.31 179.05 1101.01 178.725 1100.96 178.2C1100.96 178.175 1100.96 178.125 1100.96 178.1C1100.96 177.55 1101.36 177.275 1101.78 177.25C1105.83 177 1110.68 176.3 1114.36 175.075C1114.48 175.025 1114.61 175 1114.73 175C1115.08 175 1115.38 175.15 1115.53 175.575C1115.58 175.7 1115.61 175.85 1115.61 175.975C1115.61 176.375 1115.36 176.725 1114.96 176.85C1113.23 177.375 1111.28 177.825 1109.26 178.175V182.35H1116.21C1116.68 182.35 1116.98 182.675 1116.98 183.25C1116.98 183.8 1116.68 184.15 1116.21 184.15H1109.26V188.25ZM1104.18 195.525H1112.88C1113.38 195.525 1113.63 195.4 1113.63 194.875V190.625C1113.63 190.1 1113.38 189.975 1112.88 189.975H1104.18C1103.71 189.975 1103.48 190.1 1103.48 190.625V194.875C1103.48 195.4 1103.71 195.525 1104.18 195.525ZM1096.43 175.575C1097.43 176.2 1098.93 177.425 1099.78 178.325C1100.01 178.575 1100.11 178.825 1100.11 179.075C1100.11 179.325 1100.01 179.55 1099.83 179.725C1099.66 179.925 1099.38 180.025 1099.11 180.025C1098.86 180.025 1098.58 179.925 1098.41 179.725C1097.58 178.85 1096.13 177.725 1095.16 177.05C1094.96 176.9 1094.83 176.675 1094.83 176.425C1094.83 176.225 1094.91 176 1095.08 175.8C1095.28 175.55 1095.61 175.425 1095.91 175.425C1096.08 175.425 1096.26 175.475 1096.43 175.575ZM1095.28 181.75C1096.28 182.35 1097.86 183.625 1098.68 184.4C1098.96 184.65 1099.06 184.9 1099.06 185.15C1099.06 185.4 1098.96 185.625 1098.78 185.8C1098.58 186 1098.31 186.125 1098.01 186.125C1097.76 186.125 1097.53 186.05 1097.33 185.875C1096.51 185.125 1095.11 183.875 1094.03 183.2C1093.83 183.075 1093.71 182.825 1093.71 182.575C1093.71 182.375 1093.78 182.175 1093.93 182C1094.16 181.75 1094.43 181.6 1094.76 181.6C1094.93 181.6 1095.11 181.65 1095.28 181.75ZM1098.88 189.025C1099.33 189.2 1099.51 189.525 1099.51 189.85C1099.51 189.975 1099.48 190.1 1099.43 190.225C1098.48 192.375 1096.93 195.4 1095.71 197.125C1095.48 197.425 1095.18 197.575 1094.88 197.575C1094.66 197.575 1094.43 197.5 1094.23 197.375C1093.98 197.2 1093.83 196.975 1093.83 196.7C1093.83 196.45 1093.93 196.2 1094.16 195.925C1095.33 194.275 1096.76 191.5 1097.63 189.425C1097.76 189.1 1098.06 188.925 1098.41 188.925C1098.56 188.925 1098.71 188.95 1098.88 189.025ZM1131.84 179.896C1131.62 183.544 1131.1 186.904 1130.26 189.472C1129.42 191.944 1128.72 193.024 1127.88 193.816C1127.11 194.56 1126.1 194.872 1125.12 194.872C1122.62 194.872 1120.63 192.448 1120.63 188.416C1120.63 182.44 1124.81 178.12 1131.36 178.12C1137.02 178.12 1140.77 181.816 1140.77 187.096C1140.77 190.48 1139.3 193.048 1136.81 194.632C1135.42 195.52 1133.69 196.072 1131.77 196.36C1131.67 196.384 1131.58 196.384 1131.5 196.384C1131 196.384 1130.59 196.144 1130.5 195.544C1130.47 195.472 1130.47 195.376 1130.47 195.304C1130.47 194.824 1130.78 194.464 1131.34 194.368C1133.09 194.128 1134.94 193.528 1136.14 192.64C1137.65 191.512 1138.75 189.568 1138.75 187.048C1138.75 182.992 1136.09 180.04 1131.84 179.896ZM1129.85 179.968C1125.46 180.376 1122.58 183.736 1122.58 188.392C1122.58 191.272 1123.8 192.784 1125.07 192.784C1125.62 192.784 1126.18 192.592 1126.68 192.088C1127.21 191.584 1127.76 190.552 1128.34 188.8C1129.08 186.544 1129.68 183.256 1129.85 179.968ZM1000.12 216.232L988.65 216.376C988.074 216.376 987.762 215.968 987.762 215.32C987.762 214.744 988.098 214.36 988.65 214.36L1000.87 214.24C1001.9 214.24 1002.57 214.576 1003 215.2C1003.19 215.536 1003.31 215.92 1003.31 216.4C1003.31 216.808 1003.22 217.288 1003.05 217.792C1002.26 219.928 1000.91 221.968 999.234 224.032C1001.92 226.12 1003.89 227.68 1005.91 230.008C1006.12 230.272 1006.24 230.56 1006.24 230.848C1006.24 231.136 1006.12 231.4 1005.93 231.616C1005.71 231.856 1005.4 231.976 1005.09 231.976C1004.78 231.976 1004.47 231.856 1004.23 231.592C1002.43 229.432 1000.55 227.632 997.89 225.544C995.226 228.472 991.458 230.8 987.738 232.192C987.546 232.264 987.354 232.312 987.162 232.312C986.754 232.312 986.418 232.12 986.274 231.712C986.226 231.592 986.202 231.448 986.202 231.304C986.202 230.872 986.466 230.44 986.922 230.272C989.826 229.168 992.874 227.44 995.442 225.088C997.938 222.784 999.93 219.976 1000.87 217.288C1000.94 217.072 1000.99 216.904 1000.99 216.76C1000.99 216.4 1000.72 216.232 1000.12 216.232ZM1025.8 216.808L1017.76 216.952C1016.35 219.208 1014.33 221.368 1012.17 222.832C1011.98 222.976 1011.76 223.048 1011.55 223.048C1011.26 223.048 1010.99 222.904 1010.78 222.616C1010.66 222.448 1010.59 222.256 1010.59 222.04C1010.59 221.704 1010.73 221.368 1011.04 221.152C1012.43 220.168 1013.75 218.944 1014.81 217.624C1015.94 216.208 1016.8 214.72 1017.59 212.704C1017.79 212.224 1018.05 212.08 1018.43 212.08C1018.55 212.08 1018.67 212.104 1018.82 212.104C1019.23 212.176 1019.59 212.44 1019.59 212.896C1019.59 212.968 1019.59 213.04 1019.56 213.112C1019.47 213.592 1019.13 214.36 1018.77 215.104L1026.47 214.984C1027.96 214.96 1028.87 215.824 1028.87 217.312C1028.87 217.6 1028.85 217.912 1028.78 218.248C1028.18 221.368 1026.83 224.344 1024.72 226.864C1022.25 229.816 1018.77 232.168 1014.23 233.392C1014.07 233.416 1013.92 233.44 1013.78 233.44C1013.37 233.44 1013.06 233.272 1012.91 232.864C1012.87 232.72 1012.84 232.576 1012.84 232.432C1012.84 232.024 1013.11 231.664 1013.59 231.52C1017.23 230.44 1020.04 228.736 1022.35 226.432C1020.57 224.776 1018.6 223.264 1016.85 222.184C1016.59 222.016 1016.47 221.776 1016.47 221.488C1016.47 221.272 1016.56 221.056 1016.73 220.864C1016.92 220.6 1017.21 220.48 1017.47 220.48C1017.69 220.48 1017.88 220.552 1018.1 220.672C1019.54 221.536 1021.79 223.048 1023.71 224.92C1025.25 222.928 1026.19 220.648 1026.69 217.984C1026.74 217.792 1026.76 217.624 1026.76 217.48C1026.76 217.024 1026.52 216.784 1025.8 216.808ZM1052.37 224.104H1034.11C1033.51 224.104 1033.17 223.72 1033.17 223.072C1033.17 222.448 1033.51 221.992 1034.13 221.992H1052.35C1052.97 221.992 1053.31 222.448 1053.31 223.072C1053.31 223.72 1052.97 224.104 1052.37 224.104ZM1061.85 221.872V232.192C1061.85 232.84 1061.39 233.104 1060.79 233.104C1060.15 233.104 1059.74 232.84 1059.74 232.192V213.544C1059.74 212.896 1060.15 212.632 1060.79 212.632C1061.39 212.632 1061.85 212.896 1061.85 213.568V219.736C1065.47 220.696 1069.94 222.304 1073.56 224.032C1074.02 224.248 1074.21 224.608 1074.21 225.04C1074.21 225.208 1074.19 225.376 1074.11 225.568C1073.97 225.976 1073.59 226.264 1073.15 226.264C1072.99 226.264 1072.82 226.216 1072.65 226.144C1069.48 224.536 1065.35 222.88 1061.85 221.872ZM1093.97 219.425L1090.57 220.575V230.175C1090.57 231.075 1090.72 231.325 1091.74 231.45C1092.54 231.55 1093.92 231.575 1095.14 231.575C1096.54 231.575 1097.79 231.525 1098.74 231.375C1099.52 231.225 1099.89 230.975 1100.09 230.55C1100.29 230.05 1100.42 229.175 1100.44 228.3C1100.47 227.725 1100.84 227.475 1101.39 227.475C1101.42 227.475 1101.44 227.475 1101.47 227.475C1102.02 227.5 1102.34 227.8 1102.34 228.375C1102.34 228.375 1102.34 228.4 1102.34 228.425C1102.29 229.725 1102.04 230.975 1101.77 231.575C1101.37 232.425 1100.74 232.95 1099.04 233.175C1097.97 233.325 1096.77 233.4 1095.09 233.4C1093.62 233.4 1092.19 233.35 1091.12 233.2C1089.12 232.925 1088.72 232.15 1088.72 230.55V221.2L1086.79 221.85C1086.72 221.875 1086.64 221.875 1086.57 221.875C1086.22 221.875 1085.97 221.575 1085.89 221.175C1085.87 221.075 1085.87 221 1085.87 220.9C1085.87 220.525 1086.02 220.25 1086.34 220.15L1088.72 219.35V214.05C1088.72 213.6 1089.09 213.35 1089.64 213.35C1090.22 213.35 1090.57 213.6 1090.57 214.05V218.725L1093.97 217.6V211.625C1093.97 211.175 1094.32 210.925 1094.87 210.925C1095.44 210.925 1095.82 211.175 1095.82 211.625V216.975L1098.87 215.95C1099.24 215.825 1099.57 215.775 1099.89 215.775C1100.94 215.775 1101.67 216.475 1101.67 217.65C1101.67 220.2 1101.47 222.975 1101.22 224.375C1100.94 225.85 1100.17 226.475 1098.74 226.475C1098.14 226.475 1097.49 226.4 1097.07 226.275C1096.72 226.2 1096.49 225.925 1096.49 225.5C1096.49 225.425 1096.49 225.325 1096.52 225.225C1096.62 224.8 1096.89 224.6 1097.22 224.6C1097.29 224.6 1097.37 224.6 1097.44 224.625C1097.77 224.7 1098.14 224.775 1098.52 224.775C1099.12 224.775 1099.37 224.525 1099.49 223.825C1099.72 222.725 1099.84 220.1 1099.84 218.45C1099.84 217.925 1099.72 217.7 1099.37 217.7C1099.24 217.7 1099.09 217.725 1098.89 217.775L1095.82 218.8V227.875C1095.82 228.35 1095.44 228.6 1094.87 228.6C1094.32 228.6 1093.97 228.35 1093.97 227.875V219.425ZM1084.02 217.55H1086.12C1086.57 217.55 1086.79 217.9 1086.79 218.4C1086.79 218.9 1086.57 219.275 1086.12 219.275H1084.02V227.2C1084.69 226.9 1085.34 226.575 1085.92 226.25C1086.09 226.15 1086.27 226.1 1086.42 226.1C1086.69 226.1 1086.92 226.25 1087.04 226.575C1087.12 226.75 1087.17 226.925 1087.17 227.075C1087.17 227.375 1087.02 227.625 1086.67 227.8C1084.97 228.825 1082.29 230 1080.37 230.675C1080.22 230.725 1080.09 230.75 1079.97 230.75C1079.59 230.75 1079.32 230.525 1079.17 230.1C1079.12 229.95 1079.09 229.825 1079.09 229.675C1079.09 229.325 1079.29 229.025 1079.67 228.9C1080.44 228.65 1081.32 228.325 1082.17 228V219.275H1079.87C1079.42 219.275 1079.19 218.9 1079.19 218.4C1079.19 217.9 1079.42 217.55 1079.87 217.55H1082.17V211.75C1082.17 211.3 1082.52 211.05 1083.09 211.05C1083.64 211.05 1084.02 211.3 1084.02 211.75V217.55ZM1118.04 215.725V218.55H1123.84C1125.32 218.55 1125.97 219.175 1125.97 220.625V224.775C1125.97 226.2 1125.32 226.825 1123.84 226.825H1111.19C1109.72 226.825 1109.07 226.2 1109.07 224.775V220.625C1109.07 219.175 1109.72 218.55 1111.19 218.55H1116.14V211.55C1116.14 211.1 1116.49 210.825 1117.07 210.825C1117.67 210.825 1118.04 211.1 1118.04 211.55V213.9H1127.12C1127.57 213.9 1127.84 214.325 1127.84 214.8C1127.84 215.325 1127.57 215.725 1127.12 215.725H1118.04ZM1111.77 225.075H1123.29C1123.79 225.075 1124.04 224.925 1124.04 224.375V221C1124.04 220.45 1123.79 220.3 1123.29 220.3H1111.77C1111.27 220.3 1111.02 220.45 1111.02 221V224.375C1111.02 224.925 1111.27 225.075 1111.77 225.075ZM1110.24 227.8C1110.69 227.95 1110.94 228.25 1110.94 228.625C1110.94 228.75 1110.92 228.9 1110.87 229.025C1110.14 230.725 1109.12 232.325 1108.07 233.55C1107.87 233.8 1107.59 233.925 1107.29 233.925C1107.04 233.925 1106.79 233.85 1106.57 233.65C1106.32 233.45 1106.17 233.15 1106.17 232.875C1106.17 232.675 1106.22 232.5 1106.37 232.35C1107.34 231.3 1108.39 229.675 1108.99 228.2C1109.17 227.9 1109.47 227.725 1109.82 227.725C1109.94 227.725 1110.09 227.75 1110.24 227.8ZM1114.32 228C1114.39 228 1114.47 228 1114.52 228C1115.12 228 1115.32 228.325 1115.42 229.05C1115.57 229.925 1115.79 231.5 1115.84 232.9C1115.84 232.925 1115.84 232.925 1115.84 232.95C1115.84 233.525 1115.49 233.85 1114.87 233.9C1114.82 233.9 1114.77 233.9 1114.74 233.9C1114.19 233.9 1113.87 233.6 1113.84 233.1C1113.79 231.75 1113.62 230.225 1113.49 229.3C1113.47 229.175 1113.47 229.075 1113.47 228.975C1113.47 228.425 1113.72 228.075 1114.32 228ZM1119.09 228C1119.24 227.95 1119.37 227.925 1119.49 227.925C1119.87 227.925 1120.17 228.1 1120.32 228.45C1120.92 229.675 1121.57 231.225 1121.99 232.675C1122.02 232.75 1122.02 232.8 1122.02 232.875C1122.02 233.3 1121.79 233.65 1121.24 233.8C1121.12 233.85 1120.97 233.875 1120.84 233.875C1120.44 233.875 1120.12 233.625 1119.99 233.225C1119.64 231.9 1119.07 230.275 1118.49 229C1118.47 228.9 1118.44 228.8 1118.44 228.725C1118.44 228.425 1118.67 228.125 1119.09 228ZM1124.19 227.775C1124.39 227.675 1124.59 227.6 1124.79 227.6C1125.07 227.6 1125.29 227.7 1125.49 227.975C1126.54 229.275 1127.59 230.875 1128.37 232.425C1128.44 232.575 1128.47 232.7 1128.47 232.825C1128.47 233.175 1128.24 233.475 1127.89 233.675C1127.69 233.775 1127.52 233.825 1127.32 233.825C1127.02 233.825 1126.74 233.675 1126.57 233.375C1125.79 231.85 1124.84 230.275 1123.89 228.95C1123.77 228.8 1123.72 228.625 1123.72 228.475C1123.72 228.2 1123.89 227.95 1124.19 227.775Z" fill="#3C3C3C"/>
<path d="M1020.2 55.06H1030.46C1032.26 55.06 1033.08 55.9 1033.08 57.5C1033.08 57.56 1033.08 57.62 1033.08 57.68C1033 61.36 1031.96 64.32 1030.1 66.52C1028.44 68.48 1026.1 69.84 1023.18 70.58C1023.06 70.6 1022.94 70.62 1022.82 70.62C1022.38 70.62 1022.08 70.38 1021.96 69.98C1021.94 69.88 1021.92 69.78 1021.92 69.68C1021.92 69.3 1022.16 69.02 1022.6 68.92C1025.42 68.2 1027.6 66.88 1029.02 65.04C1030.46 63.24 1031.2 60.78 1031.28 57.66C1031.28 57.64 1031.28 57.62 1031.28 57.6C1031.28 56.94 1031 56.7 1030.24 56.7H1020.76C1020 56.7 1019.78 56.86 1019.78 57.54V61.3C1019.78 61.78 1019.4 62.1 1018.9 62.1C1018.38 62.1 1018 61.78 1018 61.3V57.16C1018 55.74 1018.8 55.06 1020.2 55.06ZM1048.48 58.44V70.3C1048.48 70.82 1048.06 71.06 1047.58 71.06C1047.1 71.06 1046.76 70.82 1046.76 70.3V58.44H1040.06C1039.64 58.44 1039.36 58.1 1039.36 57.64C1039.36 57.2 1039.64 56.82 1040.06 56.82H1046.76V54.48C1046.76 53.96 1047.1 53.72 1047.58 53.72C1048.06 53.72 1048.48 53.96 1048.48 54.48V56.82H1055.54C1055.96 56.82 1056.24 57.2 1056.24 57.64C1056.24 58.1 1055.96 58.44 1055.54 58.44H1048.48ZM1042.04 61.16C1042.12 60.7 1042.44 60.48 1042.82 60.48C1042.92 60.48 1043 60.5 1043.1 60.52C1043.5 60.58 1043.76 60.88 1043.76 61.32C1043.76 61.38 1043.76 61.46 1043.74 61.54C1043.18 64.26 1042.1 66.92 1040.76 68.82C1040.56 69.12 1040.26 69.26 1039.98 69.26C1039.8 69.26 1039.64 69.22 1039.5 69.12C1039.22 68.96 1039.08 68.7 1039.08 68.42C1039.08 68.24 1039.14 68.04 1039.26 67.88C1040.56 66.12 1041.58 63.58 1042.04 61.16ZM1052.22 60.52C1052.3 60.5 1052.38 60.5 1052.46 60.5C1052.84 60.5 1053.18 60.7 1053.28 61.18C1053.76 63.62 1054.78 66.08 1056.22 67.86C1056.32 68.02 1056.38 68.22 1056.38 68.4C1056.38 68.7 1056.24 68.96 1056.02 69.12C1055.84 69.22 1055.66 69.28 1055.48 69.28C1055.2 69.28 1054.92 69.14 1054.7 68.84C1053.34 67.02 1052.12 64.24 1051.58 61.54C1051.56 61.46 1051.56 61.38 1051.56 61.3C1051.56 60.88 1051.84 60.58 1052.22 60.52ZM1063.9 54.96V63.74C1063.9 64.26 1063.54 64.56 1063 64.56C1062.48 64.56 1062.1 64.28 1062.1 63.76V54.98C1062.1 54.46 1062.48 54.16 1063 54.16C1063.54 54.16 1063.9 54.44 1063.9 54.96ZM1072.02 61.24V55C1072.02 54.48 1072.36 54.16 1072.88 54.16C1073.42 54.16 1073.82 54.44 1073.82 54.96V61.48C1073.82 64.48 1073.06 66.58 1071.36 68.08C1069.78 69.46 1067.44 70.38 1065.22 70.64C1065.18 70.64 1065.12 70.64 1065.08 70.64C1064.6 70.64 1064.28 70.36 1064.18 69.94C1064.16 69.86 1064.16 69.8 1064.16 69.72C1064.16 69.32 1064.42 69 1064.88 68.94C1066.9 68.68 1068.9 67.88 1070.16 66.74C1071.46 65.56 1072.02 63.84 1072.02 61.24ZM1089.4 59.86V70.06C1089.4 70.56 1089.02 70.82 1088.52 70.82C1088 70.82 1087.62 70.58 1087.62 70.04V61.02C1085.24 62.44 1082.76 63.58 1080.5 64.32C1080.34 64.38 1080.2 64.4 1080.06 64.4C1079.72 64.4 1079.48 64.22 1079.32 63.84C1079.3 63.74 1079.28 63.64 1079.28 63.54C1079.28 63.22 1079.48 62.88 1079.88 62.74C1082.22 61.98 1084.9 60.76 1087.58 59.02C1089.78 57.6 1091.4 56.24 1093.02 54.4C1093.2 54.2 1093.46 54.08 1093.7 54.08C1093.9 54.08 1094.1 54.14 1094.28 54.28C1094.52 54.46 1094.64 54.7 1094.64 54.94C1094.64 55.12 1094.56 55.3 1094.42 55.48C1093.18 56.9 1091.44 58.44 1089.4 59.86Z" fill="#4EA8BB"/>
<path d="M1199.39 102.501C1203.22 102.501 1206.32 105.603 1206.32 109.429V138.008C1206.32 141.835 1203.22 144.936 1199.39 144.936C1195.56 144.936 1192.46 141.835 1192.46 138.008V109.429C1192.46 105.603 1195.56 102.501 1199.39 102.501Z" fill="#4EA8BB"/>
<path d="M1175.81 97.8094C1173.38 97.8094 1171.38 97.1084 1169.82 95.7065C1168.3 94.2506 1167.55 92.4713 1167.55 90.3684C1167.55 88.2115 1168.3 86.4322 1169.82 85.0302C1171.38 83.5744 1173.38 82.8464 1175.81 82.8464C1178.19 82.8464 1180.13 83.5744 1181.65 85.0302C1183.21 86.4322 1184 88.2115 1184 90.3684C1184 92.4713 1183.21 94.2506 1181.65 95.7065C1180.13 97.1084 1178.19 97.8094 1175.81 97.8094ZM1175.77 102.5C1179.6 102.5 1182.7 105.602 1182.7 109.429V138.008C1182.7 141.834 1179.6 144.936 1175.77 144.936C1171.95 144.936 1168.84 141.834 1168.84 138.008V109.429C1168.84 105.602 1171.95 102.5 1175.77 102.5Z" fill="#4EA8BB"/>
<path d="M1151.87 85.0845C1155.69 85.0845 1158.79 88.1863 1158.79 92.0126V138.008C1158.79 141.834 1155.69 144.936 1151.87 144.936C1148.04 144.936 1144.94 141.834 1144.94 138.008V92.0126C1144.94 88.1863 1148.04 85.0845 1151.87 85.0845Z" fill="#4EA8BB"/>
<path d="M1113.94 145.583C1109.51 145.583 1105.51 144.639 1101.95 142.752C1098.43 140.865 1095.65 138.169 1093.6 134.664C1091.6 131.159 1090.6 127.061 1090.6 122.37C1090.6 117.733 1091.63 113.662 1093.68 110.157C1095.73 106.598 1098.54 103.875 1102.11 101.988C1105.67 100.101 1109.67 99.157 1114.1 99.157C1118.53 99.157 1122.53 100.101 1126.09 101.988C1129.66 103.875 1132.47 106.598 1134.52 110.157C1136.57 113.662 1137.6 117.733 1137.6 122.37C1137.6 127.007 1136.55 131.105 1134.44 134.664C1132.39 138.169 1129.55 140.865 1125.93 142.752C1122.37 144.639 1118.37 145.583 1113.94 145.583ZM1113.94 133.612C1116.59 133.612 1118.83 132.642 1120.66 130.701C1122.55 128.759 1123.5 125.982 1123.5 122.37C1123.5 118.757 1122.58 115.98 1120.74 114.039C1118.96 112.098 1116.75 111.127 1114.1 111.127C1111.4 111.127 1109.16 112.098 1107.37 114.039C1105.59 115.926 1104.7 118.703 1104.7 122.37C1104.7 125.982 1105.57 128.759 1107.29 130.701C1109.08 132.642 1111.29 133.612 1113.94 133.612Z" fill="#4EA8BB"/>
<path d="M1066.53 99.3195C1071.71 99.3195 1075.87 101.045 1079.01 104.496C1082.14 107.893 1083.71 112.584 1083.71 118.569V138.049C1083.71 141.853 1080.62 144.936 1076.82 144.936C1073.01 144.936 1069.93 141.853 1069.93 138.049V120.429C1069.93 117.41 1069.15 115.064 1067.58 113.393C1066.01 111.721 1063.91 110.885 1061.26 110.885C1058.61 110.885 1056.51 111.721 1054.94 113.393C1053.37 115.064 1052.59 117.41 1052.59 120.429V138.008C1052.59 141.834 1049.49 144.936 1045.66 144.936C1041.84 144.936 1038.73 141.834 1038.73 138.008V92.0126C1038.73 88.1863 1041.84 85.0845 1045.66 85.0845C1049.49 85.0845 1052.59 88.1863 1052.59 92.0126V95.4777V105.871C1054 103.876 1055.91 102.285 1058.34 101.099C1060.77 99.9126 1063.5 99.3195 1066.53 99.3195Z" fill="#4EA8BB"/>
<path d="M982.891 122.289C982.891 117.652 983.755 113.581 985.484 110.076C987.266 106.571 989.67 103.875 992.695 101.988C995.72 100.101 999.097 99.157 1002.82 99.157C1006.01 99.157 1008.79 99.804 1011.17 101.098C1013.6 102.392 1015.46 104.091 1016.76 106.194C1016.76 102.665 1019.62 99.804 1023.15 99.804H1023.69C1027.52 99.804 1030.62 102.906 1030.62 106.732V138.007C1030.62 141.834 1027.52 144.936 1023.69 144.936H1023.15C1019.62 144.936 1016.76 142.075 1016.76 138.546C1015.41 140.649 1013.52 142.347 1011.09 143.641C1008.71 144.936 1005.93 145.583 1002.74 145.583C999.07 145.583 995.72 144.639 992.695 142.752C989.67 140.811 987.266 138.088 985.484 134.583C983.755 131.024 982.891 126.926 982.891 122.289ZM1016.76 122.37C1016.76 118.919 1015.79 116.196 1013.84 114.201C1011.95 112.206 1009.63 111.208 1006.88 111.208C1004.12 111.208 1001.77 112.206 999.826 114.201C997.935 116.142 996.99 118.838 996.99 122.289C996.99 125.74 997.935 128.49 999.826 130.539C1001.77 132.534 1004.12 133.531 1006.88 133.531C1009.63 133.531 1011.95 132.534 1013.84 130.539C1015.79 128.544 1016.76 125.821 1016.76 122.37Z" fill="#4EA8BB"/>
<path d="M974.145 88.1567C978.762 88.1567 982.134 92.5216 980.967 96.9895L970.588 136.732C969.326 141.564 964.961 144.935 959.967 144.935C955.059 144.935 950.747 141.677 949.407 136.955L942.596 112.96L935.517 137.044C934.141 141.722 929.848 144.935 924.972 144.935C919.944 144.935 915.557 141.523 914.319 136.65L904.228 96.9265C903.098 92.4786 906.459 88.1567 911.048 88.1567C914.408 88.1567 917.299 90.5314 917.951 93.8269L925.013 129.487L932.759 106.125C934.182 101.836 938.192 98.9409 942.71 98.9409C947.275 98.9409 951.316 101.895 952.7 106.245L960.099 129.487L967.231 93.8251C967.89 90.5292 970.784 88.1567 974.145 88.1567Z" fill="#4EA8BB"/>
<path d="M1193.43 95.7065C1195 97.1084 1197 97.8094 1199.43 97.8094C1201.81 97.8094 1203.75 97.1084 1205.26 95.7065C1206.83 94.2506 1207.61 92.4713 1207.61 90.3684C1207.61 88.2115 1206.83 86.4322 1205.26 85.0302C1203.75 83.5744 1201.81 82.8464 1199.43 82.8464C1197 82.8464 1195 83.5744 1193.43 85.0302C1191.92 86.4322 1191.16 88.2115 1191.16 90.3684C1191.16 92.4713 1191.92 94.2506 1193.43 95.7065Z" fill="#FF9441"/>
<path d="M529.1 222.969C529.58 239.777 521.789 266.105 519.011 266.184C516.234 266.263 516.692 240.054 516.212 223.247C515.732 206.439 518.167 204.919 520.945 204.84C523.722 204.761 528.62 206.162 529.1 222.969Z" fill="#F1985E"/>
<path d="M543.092 238.952C537.29 250.763 519.825 268.165 517.893 267.214C515.961 266.263 525.874 248.302 531.7 236.503C537.527 224.705 541.706 223.993 544.345 225.521C546.562 226.805 545.693 233.657 543.092 238.952Z" fill="#F1985E"/>
<path d="M500.812 234.818C507.579 246.105 518.544 268.407 520.476 267.456C522.408 266.506 516.083 242.533 510.257 230.734C504.43 218.936 500.307 217.282 497.668 218.81C495.451 220.094 496.107 226.967 500.812 234.818Z" fill="#F1985E"/>
<path d="M543.64 259.607C536.205 264.832 519.64 269.271 518.729 267.973C517.818 266.676 529.811 259.128 537.257 253.919C544.704 248.711 547.561 249.796 548.732 251.711C549.716 253.32 546.973 257.265 543.64 259.607Z" fill="#F1985E"/>
<path d="M491.238 249.724C499.016 258.728 517.189 269.551 519.545 268.024C522.556 266.072 510.67 255.102 502.874 246.114C495.077 237.126 489.383 236.521 487.464 238.425C485.852 240.024 487.751 245.688 491.238 249.724Z" fill="#F1985E"/>
<path d="M261 289.147C261 308.018 254.383 331.79 226.93 331.79C202.972 331.79 185.917 317.979 192.378 260.718C196.775 221.751 201.016 172 224.974 172C248.931 172 261 243.837 261 289.147Z" fill="#347F85"/>
<path d="M221.57 330.346C221.577 329.247 222.471 328.359 223.57 328.359H228.738C229.828 328.359 230.717 329.231 230.738 330.321L231.561 373.3C231.574 374.003 231.215 374.663 230.562 374.923C229.703 375.264 228.35 375.659 226.681 375.659C224.697 375.659 223.205 375.249 222.299 374.904C221.651 374.656 221.292 374.011 221.296 373.316L221.57 330.346Z" fill="#347F85"/>
<path d="M1781.8 356.792C1781.36 372.175 1788.48 396.271 1791.02 396.344C1793.55 396.416 1793.14 372.428 1793.57 357.046C1794.01 341.663 1791.79 340.271 1789.25 340.199C1786.71 340.127 1782.24 341.409 1781.8 356.792Z" fill="#F69B54"/>
<path d="M1769.03 371.42C1774.33 382.23 1790.28 398.157 1792.05 397.287C1793.81 396.416 1784.76 379.978 1779.43 369.179C1774.11 358.381 1770.29 357.729 1767.88 359.128C1765.86 360.302 1766.65 366.574 1769.03 371.42Z" fill="#F69B54"/>
<path d="M1807.65 367.636C1801.47 377.967 1791.45 398.378 1789.69 397.508C1787.92 396.638 1793.7 374.697 1799.02 363.898C1804.34 353.1 1808.11 351.587 1810.52 352.985C1812.55 354.16 1811.95 360.451 1807.65 367.636Z" fill="#F69B54"/>
<path d="M1768.52 390.324C1775.32 395.106 1790.45 399.168 1791.28 397.981C1792.11 396.793 1781.16 389.885 1774.35 385.118C1767.55 380.351 1764.94 381.344 1763.87 383.097C1762.97 384.569 1765.48 388.18 1768.52 390.324Z" fill="#F69B54"/>
<path d="M1816.4 381.279C1809.3 389.52 1792.69 399.425 1790.54 398.027C1787.79 396.241 1798.65 386.201 1805.77 377.975C1812.89 369.748 1818.1 369.195 1819.85 370.937C1821.32 372.401 1819.59 377.584 1816.4 381.279Z" fill="#F69B54"/>
</svg>
