<svg width="440" height="440" viewBox="0 0 440 440" fill="none" xmlns="http://www.w3.org/2000/svg">
<path d="M267.986 213.145C267.986 239.401 246.502 255.931 220.001 255.931C193.499 255.931 172.016 239.401 172.016 213.145C172.016 186.89 193.499 165.606 220.001 165.606C246.502 165.606 267.986 186.89 267.986 213.145Z" fill="#5DA7AE"/>
<path d="M140.969 344.35C140.969 302.273 175.106 268.163 217.215 268.163H222.791C264.901 268.163 299.038 302.273 299.038 344.35C299.038 361.441 285.855 375.64 268.776 376.581C253.308 377.433 234.699 378.246 220.003 378.246C205.307 378.246 186.699 377.433 171.23 376.581C154.152 375.64 140.969 361.441 140.969 344.35Z" fill="#5DA7AE"/>
<path d="M146.712 112.173C146.712 136.704 126.825 152.149 102.294 152.149C77.7619 152.149 57.875 136.704 57.875 112.173C57.875 87.6408 77.7619 67.7539 102.294 67.7539C126.825 67.7539 146.712 87.6408 146.712 112.173Z" fill="#F8CB9E"/>
<path d="M382.134 112.173C382.134 136.704 362.247 152.149 337.715 152.149C313.184 152.149 293.297 136.704 293.297 112.173C293.297 87.6408 313.184 67.7539 337.715 67.7539C362.247 67.7539 382.134 87.6408 382.134 112.173Z" fill="#8DC9ED"/>
<path d="M340.291 163.254C379.341 163.254 410.996 194.91 410.996 233.959C410.996 249.82 398.771 262.998 382.934 263.871C368.59 264.662 351.334 265.417 337.706 265.417C324.078 265.417 306.822 264.662 292.477 263.871C285.661 263.496 279.514 260.839 274.723 256.671C273.19 255.338 273.203 253.034 274.446 251.428C281.997 241.672 286.624 229.221 286.624 214.335C286.624 205.911 285.06 197.852 282.207 190.432C281.662 189.014 281.89 187.396 282.915 186.274C295.844 172.128 314.446 163.254 335.12 163.254H340.291Z" fill="#8DC9ED"/>
<path d="M104.876 163.254C125.551 163.254 144.152 172.128 157.081 186.274C158.106 187.396 158.334 189.014 157.788 190.432C154.936 197.852 153.372 205.911 153.372 214.335C153.372 229.22 157.999 241.672 165.549 251.428C166.792 253.034 166.805 255.338 165.273 256.671C160.482 260.839 154.336 263.496 147.519 263.871C133.175 264.662 115.918 265.417 102.291 265.417C88.6629 265.417 71.4066 264.662 57.062 263.871C41.2251 262.998 29 249.82 29 233.959C29 194.91 60.6559 163.254 99.7054 163.254H104.876Z" fill="#F8CB9E"/>
</svg>
