<svg width="512" height="512" viewBox="0 0 512 512" fill="none" xmlns="http://www.w3.org/2000/svg">
<rect width="512" height="512" fill="white"/>
<path d="M235.771 168.827C238.416 158.472 248.954 152.222 259.309 154.867C269.663 157.511 275.913 168.05 273.269 178.404C269.76 192.142 264.447 215.707 256.878 235.352C253.096 245.169 248.223 255.483 241.771 263.661C235.435 271.694 225.131 280.613 210.507 280.613C196.855 280.613 186.91 272.504 180.706 265.412C174.285 258.072 169.15 248.797 165.052 239.923C156.809 222.075 150.642 201.037 146.819 188.274C143.752 178.036 149.566 167.251 159.804 164.185C170.041 161.119 180.826 166.932 183.892 177.17C187.911 190.586 193.316 208.819 200.187 223.696C203.645 231.184 206.952 236.636 209.835 239.932C210.09 240.223 210.326 240.479 210.542 240.704C210.795 240.419 211.077 240.083 211.386 239.691C214.298 236 217.512 229.88 220.765 221.438C227.266 204.563 231.818 184.305 235.771 168.827Z" fill="url(#paint0_linear_2121_677)"/>
<path d="M313.929 195.386C317.496 185.373 327.112 178.781 337.466 181.426C347.821 184.071 354.071 194.609 351.427 204.964C347.918 218.701 347.158 218.742 339.589 238.387C335.806 248.204 330.934 258.518 324.482 266.696C318.146 274.729 307.842 283.648 293.218 283.648C279.566 283.648 269.621 275.54 263.417 268.447C256.996 261.108 251.861 251.832 247.763 242.958C239.52 225.11 233.353 204.073 229.53 191.309C226.463 181.071 232.277 170.286 242.514 167.22C252.752 164.154 263.537 169.967 266.603 180.205C270.622 193.621 276.027 211.854 282.898 226.732C286.356 234.22 289.663 239.671 292.546 242.967C292.801 243.258 293.037 243.514 293.253 243.74C293.506 243.454 293.788 243.118 294.097 242.726C297.009 239.035 300.223 232.915 303.476 224.473C309.977 207.598 308.568 210.435 313.929 195.386Z" fill="url(#paint1_linear_2121_677)"/>
<path d="M210.507 280.613C225.131 280.613 237.441 272.261 247.083 256.073C247.083 256.073 235.673 260.925 218.942 249.038C210.507 243.045 203.645 231.185 200.187 223.696C193.316 208.819 187.911 190.586 183.892 177.17C180.826 166.932 170.041 161.119 159.804 164.185C149.566 167.251 143.752 178.036 146.819 188.274C150.642 201.037 156.809 222.075 165.052 239.923C169.15 248.797 174.285 258.072 180.706 265.412C186.91 272.504 196.855 280.613 210.507 280.613Z" fill="url(#paint2_linear_2121_677)"/>
<path d="M252.611 151.605C259.299 151.605 265.807 154.143 270.664 159.291C274.959 163.843 276.703 169.1 277.489 172.739C279.016 179.807 278.287 187.365 277.52 192.564C276.788 197.517 275.698 202.297 274.736 206.025C277.182 213.114 279.9 220.243 282.897 226.732C286.356 234.22 293.218 246.08 301.652 252.073C318.354 263.94 329.753 259.126 329.794 259.108C320.151 275.296 307.842 283.648 293.218 283.648C279.566 283.648 269.621 275.54 263.417 268.448C256.997 261.109 251.861 251.833 247.763 242.959C247.565 242.53 247.369 242.099 247.174 241.667C240.557 228.718 234.78 214.862 231.484 202.81C229.234 194.58 227.463 185.44 227.937 177.457C228.166 173.593 229.027 167.693 232.662 162.246C237.106 155.587 244.396 151.606 252.611 151.605Z" fill="url(#paint3_linear_2121_677)"/>
<path d="M365.356 152.577C364.988 164.774 355.597 172.728 343.399 172.361C331.201 171.993 321.562 163.443 321.93 151.245C322.298 139.047 331.689 130.275 343.887 130.643C356.084 131.01 365.724 140.379 365.356 152.577Z" fill="url(#paint4_linear_2121_677)"/>
<path d="M416.816 337.971C421.086 337.971 424.547 341.432 424.547 345.701V377.678C424.547 381.947 421.086 385.408 416.816 385.408C412.547 385.408 409.086 381.947 409.086 377.678V345.701C409.086 341.432 412.547 337.971 416.816 337.971Z" fill="#4EA8BB"/>
<path d="M390.504 332.727C387.791 332.727 385.561 331.943 383.813 330.376C382.125 328.748 381.281 326.759 381.281 324.409C381.281 321.997 382.125 320.008 383.813 318.441C385.561 316.814 387.791 316 390.504 316C393.156 316 395.326 316.814 397.013 318.441C398.761 320.008 399.635 321.997 399.635 324.409C399.635 326.759 398.761 328.748 397.013 330.376C395.326 331.943 393.156 332.727 390.504 332.727ZM390.458 337.971C394.728 337.971 398.189 341.432 398.189 345.701V377.678C398.189 381.947 394.728 385.408 390.458 385.408C386.189 385.408 382.728 381.947 382.728 377.678V345.701C382.728 341.432 386.189 337.971 390.458 337.971Z" fill="#4EA8BB"/>
<path d="M363.793 318.501C368.062 318.501 371.523 321.962 371.523 326.232V377.678C371.523 381.947 368.062 385.408 363.793 385.408C359.524 385.408 356.062 381.947 356.062 377.678V326.232C356.062 321.963 359.524 318.501 363.793 318.501Z" fill="#4EA8BB"/>
<path d="M321.461 386.131C316.519 386.131 312.058 385.076 308.08 382.967C304.162 380.857 301.058 377.843 298.767 373.925C296.537 370.007 295.422 365.426 295.422 360.182C295.422 354.999 296.567 350.448 298.858 346.53C301.148 342.552 304.282 339.508 308.261 337.398C312.239 335.288 316.699 334.233 321.642 334.233C326.585 334.233 331.045 335.288 335.023 337.398C339.002 339.508 342.136 342.552 344.426 346.53C346.717 350.448 347.862 354.999 347.862 360.182C347.862 365.366 346.687 369.947 344.336 373.925C342.046 377.843 338.881 380.857 334.843 382.967C330.864 385.076 326.404 386.131 321.461 386.131ZM321.461 372.75C324.415 372.75 326.916 371.665 328.966 369.495C331.075 367.325 332.13 364.221 332.13 360.182C332.13 356.144 331.105 353.04 329.056 350.87C327.067 348.7 324.596 347.615 321.642 347.615C318.628 347.615 316.127 348.7 314.138 350.87C312.149 352.979 311.154 356.084 311.154 360.182C311.154 364.221 312.118 367.325 314.047 369.495C316.036 371.665 318.508 372.75 321.461 372.75Z" fill="#4EA8BB"/>
<path d="M268.582 334.414C274.369 334.414 279.01 336.343 282.506 340.201C286.002 343.998 287.75 349.242 287.75 355.933V377.723C287.75 381.967 284.31 385.408 280.065 385.408C275.821 385.408 272.38 381.967 272.38 377.723V358.013C272.38 354.637 271.506 352.015 269.758 350.146C268.01 348.278 265.659 347.344 262.706 347.344C259.752 347.344 257.401 348.278 255.653 350.146C253.905 352.015 253.031 354.637 253.031 358.013V377.678C253.031 381.947 249.57 385.408 245.301 385.408C241.031 385.408 237.57 381.947 237.57 377.678V326.232C237.57 321.963 241.031 318.501 245.301 318.501C249.57 318.501 253.031 321.962 253.031 326.232V330.12V341.738C254.598 339.508 256.738 337.73 259.451 336.403C262.163 335.077 265.207 334.414 268.582 334.414Z" fill="#4EA8BB"/>
<path d="M175.242 360.092C175.242 354.908 176.207 350.357 178.135 346.439C180.125 342.521 182.807 339.508 186.182 337.398C189.558 335.288 193.325 334.233 197.484 334.233C201.04 334.233 204.145 334.957 206.797 336.403C209.509 337.85 211.589 339.749 213.035 342.099C213.035 338.155 216.233 334.957 220.178 334.957H220.766C225.035 334.957 228.496 338.418 228.496 342.687V377.677C228.496 381.947 225.035 385.408 220.766 385.408H220.178C216.233 385.408 213.035 382.21 213.035 378.265C211.528 380.616 209.419 382.515 206.706 383.961C204.054 385.408 200.95 386.131 197.394 386.131C193.295 386.131 189.558 385.076 186.182 382.967C182.807 380.797 180.125 377.753 178.135 373.835C176.207 369.857 175.242 365.276 175.242 360.092ZM213.035 360.182C213.035 356.325 211.95 353.281 209.78 351.05C207.671 348.82 205.079 347.705 202.005 347.705C198.931 347.705 196.309 348.82 194.139 351.05C192.029 353.22 190.974 356.234 190.974 360.092C190.974 363.95 192.029 367.024 194.139 369.314C196.309 371.544 198.931 372.66 202.005 372.66C205.079 372.66 207.671 371.544 209.78 369.314C211.95 367.084 213.035 364.04 213.035 360.182Z" fill="#4EA8BB"/>
<path d="M165.503 321.937C170.654 321.937 174.416 326.805 173.117 331.791L161.526 376.254C160.121 381.645 155.252 385.408 149.68 385.408C144.204 385.408 139.394 381.771 137.901 376.503L130.298 349.664L122.394 376.601C120.862 381.822 116.072 385.408 110.632 385.408C105.022 385.408 100.128 381.6 98.7495 376.163L87.4807 331.72C86.2223 326.757 89.973 321.937 95.0929 321.937C98.8431 321.937 102.07 324.588 102.797 328.267L110.678 368.139L119.326 342.01C120.91 337.224 125.384 333.992 130.425 333.992C135.518 333.992 140.025 337.289 141.567 342.143L149.827 368.139L157.786 328.265C158.521 324.586 161.751 321.937 165.503 321.937Z" fill="#4EA8BB"/>
<path d="M410.18 330.376C411.928 331.943 414.158 332.727 416.871 332.727C419.523 332.727 421.693 331.943 423.381 330.376C425.129 328.748 426.003 326.759 426.003 324.409C426.003 321.997 425.129 320.008 423.381 318.441C421.693 316.814 419.523 316 416.871 316C414.158 316 411.928 316.814 410.18 318.441C408.492 320.008 407.648 321.997 407.648 324.409C407.648 326.759 408.492 328.748 410.18 330.376Z" fill="#FF9441"/>
<defs>
<linearGradient id="paint0_linear_2121_677" x1="209.938" y1="154.26" x2="209.938" y2="280.613" gradientUnits="userSpaceOnUse">
<stop offset="0.216346" stop-color="#E0E0E0"/>
<stop offset="1" stop-color="#4EA8BB"/>
</linearGradient>
<linearGradient id="paint1_linear_2121_677" x1="292.649" y1="157.296" x2="292.649" y2="283.648" gradientUnits="userSpaceOnUse">
<stop stop-color="#FFCBA0"/>
<stop offset="1" stop-color="#FF9C50"/>
</linearGradient>
<linearGradient id="paint2_linear_2121_677" x1="196.542" y1="163.366" x2="196.542" y2="280.613" gradientUnits="userSpaceOnUse">
<stop stop-color="#4EA8BB"/>
<stop offset="1" stop-color="#1996B0"/>
</linearGradient>
<linearGradient id="paint3_linear_2121_677" x1="277.733" y1="153.123" x2="277.733" y2="283.648" gradientUnits="userSpaceOnUse">
<stop stop-color="#FFB072"/>
<stop offset="1" stop-color="#F38F40"/>
</linearGradient>
<linearGradient id="paint4_linear_2121_677" x1="344.656" y1="130.643" x2="343.398" y2="172.361" gradientUnits="userSpaceOnUse">
<stop stop-color="#1FAFCD"/>
<stop offset="1" stop-color="#4EA8BB"/>
</linearGradient>
</defs>
</svg>
